<svg width="112" height="112" viewBox="0 0 112 112" fill="none" xmlns="http://www.w3.org/2000/svg">
<circle cx="56" cy="56" r="43.5" stroke="#3F4042" stroke-width="3"/>
<path d="M33.888 45.6V68H28.704V49.76H24.224V45.6H33.888ZM48.3793 68.384C46.5233 68.384 44.8699 67.9253 43.4193 67.008C41.9686 66.0907 40.8273 64.768 39.9953 63.04C39.1846 61.2907 38.7793 59.2107 38.7793 56.8C38.7793 54.3893 39.1846 52.32 39.9953 50.592C40.8273 48.8427 41.9686 47.5093 43.4193 46.592C44.8699 45.6747 46.5233 45.216 48.3793 45.216C50.2353 45.216 51.8886 45.6747 53.3393 46.592C54.7899 47.5093 55.9206 48.8427 56.7313 50.592C57.5633 52.32 57.9793 54.3893 57.9793 56.8C57.9793 59.2107 57.5633 61.2907 56.7313 63.04C55.9206 64.768 54.7899 66.0907 53.3393 67.008C51.8886 67.9253 50.2353 68.384 48.3793 68.384ZM48.3793 64C49.7446 64 50.8113 63.4133 51.5793 62.24C52.3686 61.0667 52.7633 59.2533 52.7633 56.8C52.7633 54.3467 52.3686 52.5333 51.5793 51.36C50.8113 50.1867 49.7446 49.6 48.3793 49.6C47.0353 49.6 45.9686 50.1867 45.1793 51.36C44.4113 52.5333 44.0273 54.3467 44.0273 56.8C44.0273 59.2533 44.4113 61.0667 45.1793 62.24C45.9686 63.4133 47.0353 64 48.3793 64ZM64.0358 68.256C63.1611 68.256 62.4251 67.9573 61.8278 67.36C61.2304 66.7627 60.9318 66.016 60.9318 65.12C60.9318 64.2027 61.2304 63.4667 61.8278 62.912C62.4251 62.336 63.1611 62.048 64.0358 62.048C64.9104 62.048 65.6464 62.336 66.2438 62.912C66.8411 63.4667 67.1398 64.2027 67.1398 65.12C67.1398 66.016 66.8411 66.7627 66.2438 67.36C65.6464 67.9573 64.9104 68.256 64.0358 68.256ZM79.6605 68.384C77.8045 68.384 76.1512 67.9253 74.7005 67.008C73.2498 66.0907 72.1085 64.768 71.2765 63.04C70.4658 61.2907 70.0605 59.2107 70.0605 56.8C70.0605 54.3893 70.4658 52.32 71.2765 50.592C72.1085 48.8427 73.2498 47.5093 74.7005 46.592C76.1512 45.6747 77.8045 45.216 79.6605 45.216C81.5165 45.216 83.1698 45.6747 84.6205 46.592C86.0712 47.5093 87.2018 48.8427 88.0125 50.592C88.8445 52.32 89.2605 54.3893 89.2605 56.8C89.2605 59.2107 88.8445 61.2907 88.0125 63.04C87.2018 64.768 86.0712 66.0907 84.6205 67.008C83.1698 67.9253 81.5165 68.384 79.6605 68.384ZM79.6605 64C81.0258 64 82.0925 63.4133 82.8605 62.24C83.6498 61.0667 84.0445 59.2533 84.0445 56.8C84.0445 54.3467 83.6498 52.5333 82.8605 51.36C82.0925 50.1867 81.0258 49.6 79.6605 49.6C78.3165 49.6 77.2498 50.1867 76.4605 51.36C75.6925 52.5333 75.3085 54.3467 75.3085 56.8C75.3085 59.2533 75.6925 61.0667 76.4605 62.24C77.2498 63.4133 78.3165 64 79.6605 64Z" fill="#3F4042"/>
<path d="M40.352 33.8H37.752L37.256 35H35.928L38.424 29.4H39.704L42.208 35H40.848L40.352 33.8ZM39.944 32.816L39.056 30.672L38.168 32.816H39.944ZM46.1598 35.096C45.3598 35.096 44.7358 34.8747 44.2878 34.432C43.8451 33.9893 43.6238 33.3573 43.6238 32.536V29.4H44.9198V32.488C44.9198 33.4907 45.3358 33.992 46.1678 33.992C46.5731 33.992 46.8825 33.872 47.0958 33.632C47.3091 33.3867 47.4158 33.0053 47.4158 32.488V29.4H48.6958V32.536C48.6958 33.3573 48.4718 33.9893 48.0238 34.432C47.5811 34.8747 46.9598 35.096 46.1598 35.096ZM52.0428 30.456H50.2508V29.4H55.1308V30.456H53.3388V35H52.0428V30.456ZM61.9641 29.4V35H60.6681V32.704H58.1241V35H56.8281V29.4H58.1241V31.608H60.6681V29.4H61.9641ZM67.001 35.096C66.4197 35.096 65.8943 34.9707 65.425 34.72C64.961 34.4693 64.5957 34.1253 64.329 33.688C64.0677 33.2453 63.937 32.7493 63.937 32.2C63.937 31.6507 64.0677 31.1573 64.329 30.72C64.5957 30.2773 64.961 29.9307 65.425 29.68C65.8943 29.4293 66.4197 29.304 67.001 29.304C67.5823 29.304 68.105 29.4293 68.569 29.68C69.033 29.9307 69.3983 30.2773 69.665 30.72C69.9317 31.1573 70.065 31.6507 70.065 32.2C70.065 32.7493 69.9317 33.2453 69.665 33.688C69.3983 34.1253 69.033 34.4693 68.569 34.72C68.105 34.9707 67.5823 35.096 67.001 35.096ZM67.001 33.992C67.3317 33.992 67.6303 33.9173 67.897 33.768C68.1637 33.6133 68.3717 33.4 68.521 33.128C68.6757 32.856 68.753 32.5467 68.753 32.2C68.753 31.8533 68.6757 31.544 68.521 31.272C68.3717 31 68.1637 30.7893 67.897 30.64C67.6303 30.4853 67.3317 30.408 67.001 30.408C66.6703 30.408 66.3717 30.4853 66.105 30.64C65.8383 30.7893 65.6277 31 65.473 31.272C65.3237 31.544 65.249 31.8533 65.249 32.2C65.249 32.5467 65.3237 32.856 65.473 33.128C65.6277 33.4 65.8383 33.6133 66.105 33.768C66.3717 33.9173 66.6703 33.992 67.001 33.992ZM75.607 35L74.527 33.44H74.463H73.335V35H72.039V29.4H74.463C74.959 29.4 75.3883 29.4827 75.751 29.648C76.119 29.8133 76.4017 30.048 76.599 30.352C76.7963 30.656 76.895 31.016 76.895 31.432C76.895 31.848 76.7937 32.208 76.591 32.512C76.3937 32.8107 76.111 33.04 75.743 33.2L76.999 35H75.607ZM75.583 31.432C75.583 31.1173 75.4817 30.8773 75.279 30.712C75.0763 30.5413 74.7803 30.456 74.391 30.456H73.335V32.408H74.391C74.7803 32.408 75.0763 32.3227 75.279 32.152C75.4817 31.9813 75.583 31.7413 75.583 31.432Z" fill="#3F4042"/>
<path d="M42.232 85L41.152 83.44H41.088H39.96V85H38.664V79.4H41.088C41.584 79.4 42.0133 79.4827 42.376 79.648C42.744 79.8133 43.0267 80.048 43.224 80.352C43.4213 80.656 43.52 81.016 43.52 81.432C43.52 81.848 43.4187 82.208 43.216 82.512C43.0187 82.8107 42.736 83.04 42.368 83.2L43.624 85H42.232ZM42.208 81.432C42.208 81.1173 42.1067 80.8773 41.904 80.712C41.7013 80.5413 41.4053 80.456 41.016 80.456H39.96V82.408H41.016C41.4053 82.408 41.7013 82.3227 41.904 82.152C42.1067 81.9813 42.208 81.7413 42.208 81.432ZM49.2348 83.8H46.6348L46.1388 85H44.8108L47.3068 79.4H48.5868L51.0908 85H49.7308L49.2348 83.8ZM48.8268 82.816L47.9388 80.672L47.0508 82.816H48.8268ZM53.5506 80.456H51.7586V79.4H56.6386V80.456H54.8466V85H53.5506V80.456ZM58.3359 79.4H59.6319V85H58.3359V79.4ZM67.0969 79.4V85H66.0329L63.2409 81.6V85H61.9609V79.4H63.0329L65.8169 82.8V79.4H67.0969ZM73.2058 82.112H74.3898V84.384C74.0858 84.6133 73.7338 84.7893 73.3338 84.912C72.9338 85.0347 72.5311 85.096 72.1258 85.096C71.5445 85.096 71.0218 84.9733 70.5578 84.728C70.0938 84.4773 69.7285 84.1333 69.4618 83.696C69.2005 83.2533 69.0698 82.7547 69.0698 82.2C69.0698 81.6453 69.2005 81.1493 69.4618 80.712C69.7285 80.2693 70.0965 79.9253 70.5658 79.68C71.0351 79.4293 71.5631 79.304 72.1498 79.304C72.6405 79.304 73.0858 79.3867 73.4858 79.552C73.8858 79.7173 74.2218 79.9573 74.4938 80.272L73.6618 81.04C73.2618 80.6187 72.7791 80.408 72.2138 80.408C71.8565 80.408 71.5391 80.4827 71.2618 80.632C70.9845 80.7813 70.7685 80.992 70.6138 81.264C70.4591 81.536 70.3818 81.848 70.3818 82.2C70.3818 82.5467 70.4591 82.856 70.6138 83.128C70.7685 83.4 70.9818 83.6133 71.2538 83.768C71.5311 83.9173 71.8458 83.992 72.1978 83.992C72.5711 83.992 72.9071 83.912 73.2058 83.752V82.112Z" fill="#3F4042"/>
</svg>
