<svg width="112" height="112" viewBox="0 0 112 112" fill="none" xmlns="http://www.w3.org/2000/svg">
<rect x="16.5" y="16.5" width="79" height="79" rx="7.5" stroke="#3F4042"/>
<path d="M40.13 56.12C39.5767 56.12 39.04 56.0467 38.52 55.9C38.0067 55.7467 37.5933 55.55 37.28 55.31L37.83 54.09C38.13 54.31 38.4867 54.4867 38.9 54.62C39.3133 54.7533 39.7267 54.82 40.14 54.82C40.6 54.82 40.94 54.7533 41.16 54.62C41.38 54.48 41.49 54.2967 41.49 54.07C41.49 53.9033 41.4233 53.7667 41.29 53.66C41.1633 53.5467 40.9967 53.4567 40.79 53.39C40.59 53.3233 40.3167 53.25 39.97 53.17C39.4367 53.0433 39 52.9167 38.66 52.79C38.32 52.6633 38.0267 52.46 37.78 52.18C37.54 51.9 37.42 51.5267 37.42 51.06C37.42 50.6533 37.53 50.2867 37.75 49.96C37.97 49.6267 38.3 49.3633 38.74 49.17C39.1867 48.9767 39.73 48.88 40.37 48.88C40.8167 48.88 41.2533 48.9333 41.68 49.04C42.1067 49.1467 42.48 49.3 42.8 49.5L42.3 50.73C41.6533 50.3633 41.0067 50.18 40.36 50.18C39.9067 50.18 39.57 50.2533 39.35 50.4C39.1367 50.5467 39.03 50.74 39.03 50.98C39.03 51.22 39.1533 51.4 39.4 51.52C39.6533 51.6333 40.0367 51.7467 40.55 51.86C41.0833 51.9867 41.52 52.1133 41.86 52.24C42.2 52.3667 42.49 52.5667 42.73 52.84C42.9767 53.1133 43.1 53.4833 43.1 53.95C43.1 54.35 42.9867 54.7167 42.76 55.05C42.54 55.3767 42.2067 55.6367 41.76 55.83C41.3133 56.0233 40.77 56.12 40.13 56.12ZM49.517 50.62V56H48.037V55.36C47.8303 55.5933 47.5836 55.7733 47.297 55.9C47.0103 56.02 46.7003 56.08 46.367 56.08C45.6603 56.08 45.1003 55.8767 44.687 55.47C44.2736 55.0633 44.067 54.46 44.067 53.66V50.62H45.627V53.43C45.627 54.2967 45.9903 54.73 46.717 54.73C47.0903 54.73 47.3903 54.61 47.617 54.37C47.8436 54.1233 47.957 53.76 47.957 53.28V50.62H49.517ZM54.1422 50.54C54.6422 50.54 55.0955 50.6567 55.5022 50.89C55.9155 51.1167 56.2389 51.44 56.4722 51.86C56.7055 52.2733 56.8222 52.7567 56.8222 53.31C56.8222 53.8633 56.7055 54.35 56.4722 54.77C56.2389 55.1833 55.9155 55.5067 55.5022 55.74C55.0955 55.9667 54.6422 56.08 54.1422 56.08C53.4555 56.08 52.9155 55.8633 52.5222 55.43V57.94H50.9622V50.62H52.4522V51.24C52.8389 50.7733 53.4022 50.54 54.1422 50.54ZM53.8722 54.8C54.2722 54.8 54.5989 54.6667 54.8522 54.4C55.1122 54.1267 55.2422 53.7633 55.2422 53.31C55.2422 52.8567 55.1122 52.4967 54.8522 52.23C54.5989 51.9567 54.2722 51.82 53.8722 51.82C53.4722 51.82 53.1422 51.9567 52.8822 52.23C52.6289 52.4967 52.5022 52.8567 52.5022 53.31C52.5022 53.7633 52.6289 54.1267 52.8822 54.4C53.1422 54.6667 53.4722 54.8 53.8722 54.8ZM63.1365 53.33C63.1365 53.35 63.1265 53.49 63.1065 53.75H59.0365C59.1098 54.0833 59.2832 54.3467 59.5565 54.54C59.8298 54.7333 60.1698 54.83 60.5765 54.83C60.8565 54.83 61.1032 54.79 61.3165 54.71C61.5365 54.6233 61.7398 54.49 61.9265 54.31L62.7565 55.21C62.2498 55.79 61.5098 56.08 60.5365 56.08C59.9298 56.08 59.3932 55.9633 58.9265 55.73C58.4598 55.49 58.0998 55.16 57.8465 54.74C57.5932 54.32 57.4665 53.8433 57.4665 53.31C57.4665 52.7833 57.5898 52.31 57.8365 51.89C58.0898 51.4633 58.4332 51.1333 58.8665 50.9C59.3065 50.66 59.7965 50.54 60.3365 50.54C60.8632 50.54 61.3398 50.6533 61.7665 50.88C62.1932 51.1067 62.5265 51.4333 62.7665 51.86C63.0132 52.28 63.1365 52.77 63.1365 53.33ZM60.3465 51.72C59.9932 51.72 59.6965 51.82 59.4565 52.02C59.2165 52.22 59.0698 52.4933 59.0165 52.84H61.6665C61.6132 52.5 61.4665 52.23 61.2265 52.03C60.9865 51.8233 60.6932 51.72 60.3465 51.72ZM65.6651 51.33C65.8517 51.07 66.1017 50.8733 66.4151 50.74C66.7351 50.6067 67.1017 50.54 67.5151 50.54V51.98C67.3417 51.9667 67.2251 51.96 67.1651 51.96C66.7184 51.96 66.3684 52.0867 66.1151 52.34C65.8617 52.5867 65.7351 52.96 65.7351 53.46V56H64.1751V50.62H65.6651V51.33ZM71.6227 50.54C72.1227 50.54 72.576 50.6567 72.9827 50.89C73.396 51.1167 73.7193 51.44 73.9527 51.86C74.186 52.2733 74.3027 52.7567 74.3027 53.31C74.3027 53.8633 74.186 54.35 73.9527 54.77C73.7193 55.1833 73.396 55.5067 72.9827 55.74C72.576 55.9667 72.1227 56.08 71.6227 56.08C70.8827 56.08 70.3193 55.8467 69.9327 55.38V56H68.4427V48.58H70.0027V51.19C70.396 50.7567 70.936 50.54 71.6227 50.54ZM71.3527 54.8C71.7527 54.8 72.0793 54.6667 72.3327 54.4C72.5927 54.1267 72.7227 53.7633 72.7227 53.31C72.7227 52.8567 72.5927 52.4967 72.3327 52.23C72.0793 51.9567 71.7527 51.82 71.3527 51.82C70.9527 51.82 70.6227 51.9567 70.3627 52.23C70.1093 52.4967 69.9827 52.8567 69.9827 53.31C69.9827 53.7633 70.1093 54.1267 70.3627 54.4C70.6227 54.6667 70.9527 54.8 71.3527 54.8Z" fill="#3F4042"/>
<path d="M42.944 29.8V41H40.352V31.88H38.112V29.8H42.944ZM50.6896 41.192C49.7616 41.192 48.935 40.9627 48.2096 40.504C47.4843 40.0453 46.9136 39.384 46.4976 38.52C46.0923 37.6453 45.8896 36.6053 45.8896 35.4C45.8896 34.1947 46.0923 33.16 46.4976 32.296C46.9136 31.4213 47.4843 30.7547 48.2096 30.296C48.935 29.8373 49.7616 29.608 50.6896 29.608C51.6176 29.608 52.4443 29.8373 53.1696 30.296C53.895 30.7547 54.4603 31.4213 54.8656 32.296C55.2816 33.16 55.4896 34.1947 55.4896 35.4C55.4896 36.6053 55.2816 37.6453 54.8656 38.52C54.4603 39.384 53.895 40.0453 53.1696 40.504C52.4443 40.9627 51.6176 41.192 50.6896 41.192ZM50.6896 39C51.3723 39 51.9056 38.7067 52.2896 38.12C52.6843 37.5333 52.8816 36.6267 52.8816 35.4C52.8816 34.1733 52.6843 33.2667 52.2896 32.68C51.9056 32.0933 51.3723 31.8 50.6896 31.8C50.0176 31.8 49.4843 32.0933 49.0896 32.68C48.7056 33.2667 48.5136 34.1733 48.5136 35.4C48.5136 36.6267 48.7056 37.5333 49.0896 38.12C49.4843 38.7067 50.0176 39 50.6896 39ZM59.0179 41.128C58.5805 41.128 58.2125 40.9787 57.9139 40.68C57.6152 40.3813 57.4659 40.008 57.4659 39.56C57.4659 39.1013 57.6152 38.7333 57.9139 38.456C58.2125 38.168 58.5805 38.024 59.0179 38.024C59.4552 38.024 59.8232 38.168 60.1219 38.456C60.4205 38.7333 60.5699 39.1013 60.5699 39.56C60.5699 40.008 60.4205 40.3813 60.1219 40.68C59.8232 40.9787 59.4552 41.128 59.0179 41.128ZM67.3303 41.192C66.4023 41.192 65.5756 40.9627 64.8503 40.504C64.1249 40.0453 63.5543 39.384 63.1383 38.52C62.7329 37.6453 62.5303 36.6053 62.5303 35.4C62.5303 34.1947 62.7329 33.16 63.1383 32.296C63.5543 31.4213 64.1249 30.7547 64.8503 30.296C65.5756 29.8373 66.4023 29.608 67.3303 29.608C68.2583 29.608 69.0849 29.8373 69.8103 30.296C70.5356 30.7547 71.1009 31.4213 71.5063 32.296C71.9223 33.16 72.1303 34.1947 72.1303 35.4C72.1303 36.6053 71.9223 37.6453 71.5063 38.52C71.1009 39.384 70.5356 40.0453 69.8103 40.504C69.0849 40.9627 68.2583 41.192 67.3303 41.192ZM67.3303 39C68.0129 39 68.5463 38.7067 68.9303 38.12C69.3249 37.5333 69.5223 36.6267 69.5223 35.4C69.5223 34.1733 69.3249 33.2667 68.9303 32.68C68.5463 32.0933 68.0129 31.8 67.3303 31.8C66.6583 31.8 66.1249 32.0933 65.7303 32.68C65.3463 33.2667 65.1543 34.1733 65.1543 35.4C65.1543 36.6267 65.3463 37.5333 65.7303 38.12C66.1249 38.7067 66.6583 39 67.3303 39Z" fill="#3F4042"/>
<path d="M16 68H96V88C96 92.4183 92.4183 96 88 96H24C19.5817 96 16 92.4183 16 88V68Z" fill="#3F4042"/>
<path d="M39.7637 74.709H38.0837V74.1H42.1367V74.709H40.4567V79H39.7637V74.709ZM44.0073 79.042C43.6386 79.042 43.3073 78.9603 43.0133 78.797C42.7193 78.6337 42.4883 78.4097 42.3203 78.125C42.1569 77.8357 42.0753 77.509 42.0753 77.145C42.0753 76.781 42.1569 76.4567 42.3203 76.172C42.4883 75.8827 42.7193 75.6587 43.0133 75.5C43.3073 75.3367 43.6386 75.255 44.0073 75.255C44.3759 75.255 44.7049 75.3367 44.9943 75.5C45.2883 75.6587 45.5169 75.8827 45.6803 76.172C45.8483 76.4567 45.9323 76.781 45.9323 77.145C45.9323 77.509 45.8483 77.8357 45.6803 78.125C45.5169 78.4097 45.2883 78.6337 44.9943 78.797C44.7049 78.9603 44.3759 79.042 44.0073 79.042ZM44.0073 78.454C44.2453 78.454 44.4576 78.4003 44.6443 78.293C44.8356 78.181 44.9849 78.027 45.0923 77.831C45.1996 77.6303 45.2533 77.4017 45.2533 77.145C45.2533 76.8883 45.1996 76.662 45.0923 76.466C44.9849 76.2653 44.8356 76.1113 44.6443 76.004C44.4576 75.8967 44.2453 75.843 44.0073 75.843C43.7693 75.843 43.5546 75.8967 43.3633 76.004C43.1766 76.1113 43.0273 76.2653 42.9153 76.466C42.8079 76.662 42.7543 76.8883 42.7543 77.145C42.7543 77.4017 42.8079 77.6303 42.9153 77.831C43.0273 78.027 43.1766 78.181 43.3633 78.293C43.5546 78.4003 43.7693 78.454 44.0073 78.454ZM48.8286 75.255C49.1879 75.255 49.5099 75.3343 49.7946 75.493C50.0793 75.6517 50.3009 75.8733 50.4596 76.158C50.6229 76.4427 50.7046 76.7717 50.7046 77.145C50.7046 77.5183 50.6229 77.8497 50.4596 78.139C50.3009 78.4237 50.0793 78.6453 49.7946 78.804C49.5099 78.9627 49.1879 79.042 48.8286 79.042C48.5626 79.042 48.3176 78.9907 48.0936 78.888C47.8743 78.7853 47.6876 78.636 47.5336 78.44V80.358H46.8616V75.29H47.5056V75.878C47.6549 75.6727 47.8439 75.5187 48.0726 75.416C48.3013 75.3087 48.5533 75.255 48.8286 75.255ZM48.7726 78.454C49.0106 78.454 49.2229 78.4003 49.4096 78.293C49.6009 78.181 49.7503 78.027 49.8576 77.831C49.9696 77.6303 50.0256 77.4017 50.0256 77.145C50.0256 76.8883 49.9696 76.662 49.8576 76.466C49.7503 76.2653 49.6009 76.1113 49.4096 76.004C49.2229 75.8967 49.0106 75.843 48.7726 75.843C48.5393 75.843 48.3269 75.899 48.1356 76.011C47.9489 76.1183 47.7996 76.27 47.6876 76.466C47.5803 76.662 47.5266 76.8883 47.5266 77.145C47.5266 77.4017 47.5803 77.6303 47.6876 77.831C47.7949 78.027 47.9443 78.181 48.1356 78.293C48.3269 78.4003 48.5393 78.454 48.7726 78.454ZM56.887 79L55.83 77.495C55.6993 77.5043 55.5966 77.509 55.522 77.509H54.311V79H53.611V74.1H55.522C56.1566 74.1 56.656 74.2517 57.02 74.555C57.384 74.8583 57.566 75.276 57.566 75.808C57.566 76.186 57.4726 76.508 57.286 76.774C57.0993 77.04 56.8333 77.2337 56.488 77.355L57.65 79H56.887ZM55.501 76.914C55.9443 76.914 56.2826 76.8183 56.516 76.627C56.7493 76.4357 56.866 76.1627 56.866 75.808C56.866 75.4533 56.7493 75.1827 56.516 74.996C56.2826 74.8047 55.9443 74.709 55.501 74.709H54.311V76.914H55.501ZM59.9157 75.255C60.4291 75.255 60.8211 75.381 61.0917 75.633C61.3671 75.885 61.5047 76.2607 61.5047 76.76V79H60.8677V78.51C60.7557 78.6827 60.5947 78.8157 60.3847 78.909C60.1794 78.9977 59.9344 79.042 59.6497 79.042C59.2344 79.042 58.9007 78.9417 58.6487 78.741C58.4014 78.5403 58.2777 78.2767 58.2777 77.95C58.2777 77.6233 58.3967 77.362 58.6347 77.166C58.8727 76.9653 59.2507 76.865 59.7687 76.865H60.8327V76.732C60.8327 76.4427 60.7487 76.221 60.5807 76.067C60.4127 75.913 60.1654 75.836 59.8387 75.836C59.6194 75.836 59.4047 75.8733 59.1947 75.948C58.9847 76.018 58.8074 76.1137 58.6627 76.235L58.3827 75.731C58.5741 75.577 58.8027 75.4603 59.0687 75.381C59.3347 75.297 59.6171 75.255 59.9157 75.255ZM59.7617 78.524C60.0184 78.524 60.2401 78.468 60.4267 78.356C60.6134 78.2393 60.7487 78.076 60.8327 77.866V77.348H59.7967C59.2274 77.348 58.9427 77.5393 58.9427 77.922C58.9427 78.1087 59.0151 78.2557 59.1597 78.363C59.3044 78.4703 59.5051 78.524 59.7617 78.524ZM64.8343 78.783C64.7363 78.867 64.615 78.9323 64.4703 78.979C64.3257 79.021 64.1763 79.042 64.0223 79.042C63.649 79.042 63.3597 78.9417 63.1543 78.741C62.949 78.5403 62.8463 78.2533 62.8463 77.88V75.843H62.2163V75.29H62.8463V74.478H63.5183V75.29H64.5823V75.843H63.5183V77.852C63.5183 78.0527 63.5673 78.2067 63.6653 78.314C63.768 78.4213 63.9127 78.475 64.0993 78.475C64.3047 78.475 64.4797 78.4167 64.6243 78.3L64.8343 78.783ZM68.8767 77.166C68.8767 77.2173 68.8721 77.285 68.8627 77.369H65.8527C65.8947 77.6957 66.0371 77.9593 66.2797 78.16C66.5271 78.356 66.8327 78.454 67.1967 78.454C67.6401 78.454 67.9971 78.3047 68.2677 78.006L68.6387 78.44C68.4707 78.636 68.2607 78.7853 68.0087 78.888C67.7614 78.9907 67.4837 79.042 67.1757 79.042C66.7837 79.042 66.4361 78.9627 66.1327 78.804C65.8294 78.6407 65.5937 78.4143 65.4257 78.125C65.2624 77.8357 65.1807 77.509 65.1807 77.145C65.1807 76.7857 65.2601 76.4613 65.4187 76.172C65.5821 75.8827 65.8037 75.6587 66.0837 75.5C66.3684 75.3367 66.6881 75.255 67.0427 75.255C67.3974 75.255 67.7124 75.3367 67.9877 75.5C68.2677 75.6587 68.4847 75.8827 68.6387 76.172C68.7974 76.4613 68.8767 76.7927 68.8767 77.166ZM67.0427 75.822C66.7207 75.822 66.4501 75.92 66.2307 76.116C66.0161 76.312 65.8901 76.5687 65.8527 76.886H68.2327C68.1954 76.5733 68.0671 76.319 67.8477 76.123C67.6331 75.9223 67.3647 75.822 67.0427 75.822ZM73.3099 73.806V79H72.6659V78.412C72.5165 78.6173 72.3275 78.7737 72.0989 78.881C71.8702 78.9883 71.6182 79.042 71.3429 79.042C70.9835 79.042 70.6615 78.9627 70.3769 78.804C70.0922 78.6453 69.8682 78.4237 69.7049 78.139C69.5462 77.8497 69.4669 77.5183 69.4669 77.145C69.4669 76.7717 69.5462 76.4427 69.7049 76.158C69.8682 75.8733 70.0922 75.6517 70.3769 75.493C70.6615 75.3343 70.9835 75.255 71.3429 75.255C71.6089 75.255 71.8539 75.3063 72.0779 75.409C72.3019 75.507 72.4885 75.654 72.6379 75.85V73.806H73.3099ZM71.3989 78.454C71.6322 78.454 71.8445 78.4003 72.0359 78.293C72.2272 78.181 72.3765 78.027 72.4839 77.831C72.5912 77.6303 72.6449 77.4017 72.6449 77.145C72.6449 76.8883 72.5912 76.662 72.4839 76.466C72.3765 76.2653 72.2272 76.1113 72.0359 76.004C71.8445 75.8967 71.6322 75.843 71.3989 75.843C71.1609 75.843 70.9462 75.8967 70.7549 76.004C70.5682 76.1113 70.4189 76.2653 70.3069 76.466C70.1995 76.662 70.1459 76.8883 70.1459 77.145C70.1459 77.4017 70.1995 77.6303 70.3069 77.831C70.4189 78.027 70.5682 78.181 70.7549 78.293C70.9462 78.4003 71.1609 78.454 71.3989 78.454ZM47.46 87.775H44.856L44.317 89H43.596L45.815 84.1H46.508L48.734 89H47.999L47.46 87.775ZM47.215 87.215L46.158 84.814L45.101 87.215H47.215ZM52.7566 85.29V89H52.1196V88.44C51.9843 88.6313 51.8046 88.7807 51.5806 88.888C51.3613 88.9907 51.121 89.042 50.8596 89.042C50.365 89.042 49.9753 88.9067 49.6906 88.636C49.406 88.3607 49.2636 87.957 49.2636 87.425V85.29H49.9356V87.348C49.9356 87.7073 50.022 87.9803 50.1946 88.167C50.3673 88.349 50.6146 88.44 50.9366 88.44C51.2913 88.44 51.5713 88.3327 51.7766 88.118C51.982 87.9033 52.0846 87.6 52.0846 87.208V85.29H52.7566ZM56.1219 88.783C56.0239 88.867 55.9026 88.9323 55.7579 88.979C55.6133 89.021 55.4639 89.042 55.3099 89.042C54.9366 89.042 54.6473 88.9417 54.4419 88.741C54.2366 88.5403 54.1339 88.2533 54.1339 87.88V85.843H53.5039V85.29H54.1339V84.478H54.8059V85.29H55.8699V85.843H54.8059V87.852C54.8059 88.0527 54.8549 88.2067 54.9529 88.314C55.0556 88.4213 55.2003 88.475 55.3869 88.475C55.5923 88.475 55.7673 88.4167 55.9119 88.3L56.1219 88.783ZM58.9154 85.255C59.3867 85.255 59.76 85.3927 60.0354 85.668C60.3154 85.9387 60.4554 86.3377 60.4554 86.865V89H59.7834V86.942C59.7834 86.5827 59.697 86.312 59.5244 86.13C59.3517 85.948 59.1044 85.857 58.7824 85.857C58.4184 85.857 58.1314 85.9643 57.9214 86.179C57.7114 86.389 57.6064 86.6923 57.6064 87.089V89H56.9344V83.806H57.6064V85.815C57.7464 85.6377 57.9284 85.5 58.1524 85.402C58.381 85.304 58.6354 85.255 58.9154 85.255ZM63.3085 89.042C62.9399 89.042 62.6085 88.9603 62.3145 88.797C62.0205 88.6337 61.7895 88.4097 61.6215 88.125C61.4582 87.8357 61.3765 87.509 61.3765 87.145C61.3765 86.781 61.4582 86.4567 61.6215 86.172C61.7895 85.8827 62.0205 85.6587 62.3145 85.5C62.6085 85.3367 62.9399 85.255 63.3085 85.255C63.6772 85.255 64.0062 85.3367 64.2955 85.5C64.5895 85.6587 64.8182 85.8827 64.9815 86.172C65.1495 86.4567 65.2335 86.781 65.2335 87.145C65.2335 87.509 65.1495 87.8357 64.9815 88.125C64.8182 88.4097 64.5895 88.6337 64.2955 88.797C64.0062 88.9603 63.6772 89.042 63.3085 89.042ZM63.3085 88.454C63.5465 88.454 63.7589 88.4003 63.9455 88.293C64.1369 88.181 64.2862 88.027 64.3935 87.831C64.5009 87.6303 64.5545 87.4017 64.5545 87.145C64.5545 86.8883 64.5009 86.662 64.3935 86.466C64.2862 86.2653 64.1369 86.1113 63.9455 86.004C63.7589 85.8967 63.5465 85.843 63.3085 85.843C63.0705 85.843 62.8559 85.8967 62.6645 86.004C62.4779 86.1113 62.3285 86.2653 62.2165 86.466C62.1092 86.662 62.0555 86.8883 62.0555 87.145C62.0555 87.4017 62.1092 87.6303 62.2165 87.831C62.3285 88.027 62.4779 88.181 62.6645 88.293C62.8559 88.4003 63.0705 88.454 63.3085 88.454ZM66.8069 85.913C66.9235 85.6983 67.0962 85.535 67.3249 85.423C67.5535 85.311 67.8312 85.255 68.1579 85.255V85.906C68.1205 85.9013 68.0692 85.899 68.0039 85.899C67.6399 85.899 67.3529 86.0087 67.1429 86.228C66.9375 86.4427 66.8349 86.7507 66.8349 87.152V89H66.1629V85.29H66.8069V85.913Z" fill="white"/>
</svg>
