<svg width="112" height="112" viewBox="0 0 112 112" fill="none" xmlns="http://www.w3.org/2000/svg">
<path d="M26.36 40V68H19.88V45.2H14.28V40H26.36ZM44.2241 68.48C41.9041 68.48 39.8374 67.9067 38.0241 66.76C36.2107 65.6133 34.7841 63.96 33.7441 61.8C32.7307 59.6133 32.2241 57.0133 32.2241 54C32.2241 50.9867 32.7307 48.4 33.7441 46.24C34.7841 44.0533 36.2107 42.3867 38.0241 41.24C39.8374 40.0933 41.9041 39.52 44.2241 39.52C46.5441 39.52 48.6107 40.0933 50.4241 41.24C52.2374 42.3867 53.6507 44.0533 54.6641 46.24C55.7041 48.4 56.2241 50.9867 56.2241 54C56.2241 57.0133 55.7041 59.6133 54.6641 61.8C53.6507 63.96 52.2374 65.6133 50.4241 66.76C48.6107 67.9067 46.5441 68.48 44.2241 68.48ZM44.2241 63C45.9307 63 47.2641 62.2667 48.2241 60.8C49.2107 59.3333 49.7041 57.0667 49.7041 54C49.7041 50.9333 49.2107 48.6667 48.2241 47.2C47.2641 45.7333 45.9307 45 44.2241 45C42.5441 45 41.2107 45.7333 40.2241 47.2C39.2641 48.6667 38.7841 50.9333 38.7841 54C38.7841 57.0667 39.2641 59.3333 40.2241 60.8C41.2107 62.2667 42.5441 63 44.2241 63ZM63.5447 68.32C62.4514 68.32 61.5314 67.9467 60.7847 67.2C60.038 66.4533 59.6647 65.52 59.6647 64.4C59.6647 63.2533 60.038 62.3333 60.7847 61.64C61.5314 60.92 62.4514 60.56 63.5447 60.56C64.638 60.56 65.558 60.92 66.3047 61.64C67.0514 62.3333 67.4247 63.2533 67.4247 64.4C67.4247 65.52 67.0514 66.4533 66.3047 67.2C65.558 67.9467 64.638 68.32 63.5447 68.32ZM82.8256 68.48C80.5056 68.48 78.439 67.9067 76.6256 66.76C74.8123 65.6133 73.3856 63.96 72.3456 61.8C71.3323 59.6133 70.8256 57.0133 70.8256 54C70.8256 50.9867 71.3323 48.4 72.3456 46.24C73.3856 44.0533 74.8123 42.3867 76.6256 41.24C78.439 40.0933 80.5056 39.52 82.8256 39.52C85.1456 39.52 87.2123 40.0933 89.0256 41.24C90.839 42.3867 92.2523 44.0533 93.2656 46.24C94.3056 48.4 94.8256 50.9867 94.8256 54C94.8256 57.0133 94.3056 59.6133 93.2656 61.8C92.2523 63.96 90.839 65.6133 89.0256 66.76C87.2123 67.9067 85.1456 68.48 82.8256 68.48ZM82.8256 63C84.5323 63 85.8656 62.2667 86.8256 60.8C87.8123 59.3333 88.3056 57.0667 88.3056 54C88.3056 50.9333 87.8123 48.6667 86.8256 47.2C85.8656 45.7333 84.5323 45 82.8256 45C81.1456 45 79.8123 45.7333 78.8256 47.2C77.8656 48.6667 77.3856 50.9333 77.3856 54C77.3856 57.0667 77.8656 59.3333 78.8256 60.8C79.8123 62.2667 81.1456 63 82.8256 63Z" fill="#3F4042"/>
<path d="M23.248 29.45H17.723L16.669 32H13.847L19.151 20.1H21.871L27.192 32H24.302L23.248 29.45ZM22.381 27.359L20.494 22.803L18.607 27.359H22.381ZM34.4646 32.204C32.7646 32.204 31.4386 31.7337 30.4866 30.793C29.5459 29.8523 29.0756 28.5093 29.0756 26.764V20.1H31.8296V26.662C31.8296 28.7927 32.7136 29.858 34.4816 29.858C35.3429 29.858 36.0003 29.603 36.4536 29.093C36.9069 28.5717 37.1336 27.7613 37.1336 26.662V20.1H39.8536V26.764C39.8536 28.5093 39.3776 29.8523 38.4256 30.793C37.4849 31.7337 36.1646 32.204 34.4646 32.204ZM45.8408 22.344H42.0328V20.1H52.4028V22.344H48.5948V32H45.8408V22.344ZM65.7986 20.1V32H63.0446V27.121H57.6386V32H54.8846V20.1H57.6386V24.792H63.0446V20.1H65.7986ZM75.3771 32.204C74.1418 32.204 73.0255 31.9377 72.0281 31.405C71.0421 30.8723 70.2658 30.1413 69.6991 29.212C69.1438 28.2713 68.8661 27.2173 68.8661 26.05C68.8661 24.8827 69.1438 23.8343 69.6991 22.905C70.2658 21.9643 71.0421 21.2277 72.0281 20.695C73.0255 20.1623 74.1418 19.896 75.3771 19.896C76.6125 19.896 77.7231 20.1623 78.7091 20.695C79.6951 21.2277 80.4715 21.9643 81.0381 22.905C81.6048 23.8343 81.8881 24.8827 81.8881 26.05C81.8881 27.2173 81.6048 28.2713 81.0381 29.212C80.4715 30.1413 79.6951 30.8723 78.7091 31.405C77.7231 31.9377 76.6125 32.204 75.3771 32.204ZM75.3771 29.858C76.0798 29.858 76.7145 29.6993 77.2811 29.382C77.8478 29.0533 78.2898 28.6 78.6071 28.022C78.9358 27.444 79.1001 26.7867 79.1001 26.05C79.1001 25.3133 78.9358 24.656 78.6071 24.078C78.2898 23.5 77.8478 23.0523 77.2811 22.735C76.7145 22.4063 76.0798 22.242 75.3771 22.242C74.6745 22.242 74.0398 22.4063 73.4731 22.735C72.9065 23.0523 72.4588 23.5 72.1301 24.078C71.8128 24.656 71.6541 25.3133 71.6541 26.05C71.6541 26.7867 71.8128 27.444 72.1301 28.022C72.4588 28.6 72.9065 29.0533 73.4731 29.382C74.0398 29.6993 74.6745 29.858 75.3771 29.858ZM92.5399 32L90.2449 28.685H90.1089H87.7119V32H84.9579V20.1H90.1089C91.1629 20.1 92.0752 20.2757 92.8459 20.627C93.6279 20.9783 94.2285 21.477 94.6479 22.123C95.0672 22.769 95.2769 23.534 95.2769 24.418C95.2769 25.302 95.0615 26.067 94.6309 26.713C94.2115 27.3477 93.6109 27.835 92.8289 28.175L95.4979 32H92.5399ZM92.4889 24.418C92.4889 23.7493 92.2735 23.2393 91.8429 22.888C91.4122 22.5253 90.7832 22.344 89.9559 22.344H87.7119V26.492H89.9559C90.7832 26.492 91.4122 26.3107 91.8429 25.948C92.2735 25.5853 92.4889 25.0753 92.4889 24.418Z" fill="#3F4042"/>
<rect x="14" y="75" width="83" height="22" fill="#3F4042"/>
<path d="M27.993 92L25.698 88.685H25.562H23.165V92H20.411V80.1H25.562C26.616 80.1 27.5283 80.2757 28.299 80.627C29.081 80.9783 29.6817 81.477 30.101 82.123C30.5203 82.769 30.73 83.534 30.73 84.418C30.73 85.302 30.5147 86.067 30.084 86.713C29.6647 87.3477 29.064 87.835 28.282 88.175L30.951 92H27.993ZM27.942 84.418C27.942 83.7493 27.7267 83.2393 27.296 82.888C26.8653 82.5253 26.2363 82.344 25.409 82.344H23.165V86.492H25.409C26.2363 86.492 26.8653 86.3107 27.296 85.948C27.7267 85.5853 27.942 85.0753 27.942 84.418ZM41.749 89.45H36.224L35.17 92H32.348L37.652 80.1H40.372L45.693 92H42.803L41.749 89.45ZM40.882 87.359L38.995 82.803L37.108 87.359H40.882ZM49.7949 82.344H45.9869V80.1H56.3569V82.344H52.5489V92H49.7949V82.344ZM58.8387 80.1H61.5927V92H58.8387V80.1ZM76.3309 80.1V92H74.0699L68.1369 84.775V92H65.4169V80.1H67.6949L73.6109 87.325V80.1H76.3309ZM88.1874 85.863H90.7034V90.691C90.0574 91.1783 89.3094 91.5523 88.4594 91.813C87.6094 92.0737 86.7537 92.204 85.8924 92.204C84.657 92.204 83.5464 91.9433 82.5604 91.422C81.5744 90.8893 80.798 90.1583 80.2314 89.229C79.676 88.2883 79.3984 87.2287 79.3984 86.05C79.3984 84.8713 79.676 83.8173 80.2314 82.888C80.798 81.9473 81.58 81.2163 82.5774 80.695C83.5747 80.1623 84.6967 79.896 85.9434 79.896C86.986 79.896 87.9324 80.0717 88.7824 80.423C89.6324 80.7743 90.3464 81.2843 90.9244 81.953L89.1564 83.585C88.3064 82.6897 87.2807 82.242 86.0794 82.242C85.32 82.242 84.6457 82.4007 84.0564 82.718C83.467 83.0353 83.008 83.483 82.6794 84.061C82.3507 84.639 82.1864 85.302 82.1864 86.05C82.1864 86.7867 82.3507 87.444 82.6794 88.022C83.008 88.6 83.4614 89.0533 84.0394 89.382C84.6287 89.6993 85.2974 89.858 86.0454 89.858C86.8387 89.858 87.5527 89.688 88.1874 89.348V85.863Z" fill="white"/>
</svg>
