<svg width="112" height="112" viewBox="0 0 112 112" fill="none" xmlns="http://www.w3.org/2000/svg">
<path d="M48.0845 27.5V52H42.4145V32.05H37.5145V27.5H48.0845ZM63.8406 52.42C61.8106 52.42 60.0023 51.9183 58.4156 50.915C56.8289 49.9117 55.5806 48.465 54.6706 46.575C53.7839 44.6617 53.3406 42.3867 53.3406 39.75C53.3406 37.1133 53.7839 34.85 54.6706 32.96C55.5806 31.0467 56.8289 29.5883 58.4156 28.585C60.0023 27.5817 61.8106 27.08 63.8406 27.08C65.8706 27.08 67.6789 27.5817 69.2656 28.585C70.8523 29.5883 72.0889 31.0467 72.9756 32.96C73.8856 34.85 74.3406 37.1133 74.3406 39.75C74.3406 42.3867 73.8856 44.6617 72.9756 46.575C72.0889 48.465 70.8523 49.9117 69.2656 50.915C67.6789 51.9183 65.8706 52.42 63.8406 52.42ZM63.8406 47.625C65.3339 47.625 66.5006 46.9833 67.3406 45.7C68.2039 44.4167 68.6356 42.4333 68.6356 39.75C68.6356 37.0667 68.2039 35.0833 67.3406 33.8C66.5006 32.5167 65.3339 31.875 63.8406 31.875C62.3706 31.875 61.2039 32.5167 60.3406 33.8C59.5006 35.0833 59.0806 37.0667 59.0806 39.75C59.0806 42.4333 59.5006 44.4167 60.3406 45.7C61.2039 46.9833 62.3706 47.625 63.8406 47.625Z" fill="#3F4042"/>
<path d="M96.5 49C96.5 70.8094 78.5973 88.5 56.5 88.5C34.4027 88.5 16.5 70.8094 16.5 49C16.5 27.1906 34.4027 9.5 56.5 9.5C78.5973 9.5 96.5 27.1906 96.5 49Z" stroke="#3F4042"/>
<path d="M93.5 49C93.5 69.1521 76.9409 85.5 56.5 85.5C36.0591 85.5 19.5 69.1521 19.5 49C19.5 28.8479 36.0591 12.5 56.5 12.5C76.9409 12.5 93.5 28.8479 93.5 49Z" stroke="#3F4042"/>
<path d="M45.5742 66.632C46.0542 66.784 46.4302 67.04 46.7022 67.4C46.9742 67.752 47.1102 68.188 47.1102 68.708C47.1102 69.444 46.8222 70.012 46.2462 70.412C45.6782 70.804 44.8462 71 43.7502 71H39.4062V62.6H43.5102C44.5342 62.6 45.3182 62.796 45.8622 63.188C46.4142 63.58 46.6902 64.112 46.6902 64.784C46.6902 65.192 46.5902 65.556 46.3902 65.876C46.1982 66.196 45.9262 66.448 45.5742 66.632ZM41.3382 64.064V66.044H43.2702C43.7502 66.044 44.1142 65.96 44.3622 65.792C44.6102 65.624 44.7342 65.376 44.7342 65.048C44.7342 64.72 44.6102 64.476 44.3622 64.316C44.1142 64.148 43.7502 64.064 43.2702 64.064H41.3382ZM43.6062 69.536C44.1182 69.536 44.5022 69.452 44.7582 69.284C45.0222 69.116 45.1542 68.856 45.1542 68.504C45.1542 67.808 44.6382 67.46 43.6062 67.46H41.3382V69.536H43.6062ZM56.0859 69.44V71H49.5819V62.6H55.9299V64.16H51.5139V65.984H55.4139V67.496H51.5139V69.44H56.0859ZM61.3927 71.144C60.7287 71.144 60.0847 71.056 59.4607 70.88C58.8447 70.696 58.3487 70.46 57.9727 70.172L58.6327 68.708C58.9927 68.972 59.4207 69.184 59.9167 69.344C60.4127 69.504 60.9087 69.584 61.4047 69.584C61.9567 69.584 62.3647 69.504 62.6287 69.344C62.8927 69.176 63.0247 68.956 63.0247 68.684C63.0247 68.484 62.9447 68.32 62.7847 68.192C62.6327 68.056 62.4327 67.948 62.1847 67.868C61.9447 67.788 61.6167 67.7 61.2007 67.604C60.5607 67.452 60.0367 67.3 59.6287 67.148C59.2207 66.996 58.8687 66.752 58.5727 66.416C58.2847 66.08 58.1407 65.632 58.1407 65.072C58.1407 64.584 58.2727 64.144 58.5367 63.752C58.8007 63.352 59.1967 63.036 59.7247 62.804C60.2607 62.572 60.9127 62.456 61.6807 62.456C62.2167 62.456 62.7407 62.52 63.2527 62.648C63.7647 62.776 64.2127 62.96 64.5967 63.2L63.9967 64.676C63.2207 64.236 62.4447 64.016 61.6687 64.016C61.1247 64.016 60.7207 64.104 60.4567 64.28C60.2007 64.456 60.0727 64.688 60.0727 64.976C60.0727 65.264 60.2207 65.48 60.5167 65.624C60.8207 65.76 61.2807 65.896 61.8967 66.032C62.5367 66.184 63.0607 66.336 63.4687 66.488C63.8767 66.64 64.2247 66.88 64.5127 67.208C64.8087 67.536 64.9567 67.98 64.9567 68.54C64.9567 69.02 64.8207 69.46 64.5487 69.86C64.2847 70.252 63.8847 70.564 63.3487 70.796C62.8127 71.028 62.1607 71.144 61.3927 71.144ZM68.9079 64.184H66.2199V62.6H73.5399V64.184H70.8519V71H68.9079V64.184Z" fill="#3F4042"/>
<path d="M30.4155 101L29.5095 99.71C29.3975 99.718 29.3095 99.722 29.2455 99.722H28.2075V101H27.6075V96.8H29.2455C29.7895 96.8 30.2175 96.93 30.5295 97.19C30.8415 97.45 30.9975 97.808 30.9975 98.264C30.9975 98.588 30.9175 98.864 30.7575 99.092C30.5975 99.32 30.3695 99.486 30.0735 99.59L31.0695 101H30.4155ZM29.2275 99.212C29.6075 99.212 29.8975 99.13 30.0975 98.966C30.2975 98.802 30.3975 98.568 30.3975 98.264C30.3975 97.96 30.2975 97.728 30.0975 97.568C29.8975 97.404 29.6075 97.322 29.2275 97.322H28.2075V99.212H29.2275ZM34.7569 99.428C34.7569 99.472 34.7529 99.53 34.7449 99.602H32.1649C32.2009 99.882 32.3229 100.108 32.5309 100.28C32.7429 100.448 33.0049 100.532 33.3169 100.532C33.6969 100.532 34.0029 100.404 34.2349 100.148L34.5529 100.52C34.4089 100.688 34.2289 100.816 34.0129 100.904C33.8009 100.992 33.5629 101.036 33.2989 101.036C32.9629 101.036 32.6649 100.968 32.4049 100.832C32.1449 100.692 31.9429 100.498 31.7989 100.25C31.6589 100.002 31.5889 99.722 31.5889 99.41C31.5889 99.102 31.6569 98.824 31.7929 98.576C31.9329 98.328 32.1229 98.136 32.3629 98C32.6069 97.86 32.8809 97.79 33.1849 97.79C33.4889 97.79 33.7589 97.86 33.9949 98C34.2349 98.136 34.4209 98.328 34.5529 98.576C34.6889 98.824 34.7569 99.108 34.7569 99.428ZM33.1849 98.276C32.9089 98.276 32.6769 98.36 32.4889 98.528C32.3049 98.696 32.1969 98.916 32.1649 99.188H34.2049C34.1729 98.92 34.0629 98.702 33.8749 98.534C33.6909 98.362 33.4609 98.276 33.1849 98.276ZM36.6269 97.79C37.0669 97.79 37.4029 97.898 37.6349 98.114C37.8709 98.33 37.9889 98.652 37.9889 99.08V101H37.4429V100.58C37.3469 100.728 37.2089 100.842 37.0289 100.922C36.8529 100.998 36.6429 101.036 36.3989 101.036C36.0429 101.036 35.7569 100.95 35.5409 100.778C35.3289 100.606 35.2229 100.38 35.2229 100.1C35.2229 99.82 35.3249 99.596 35.5289 99.428C35.7329 99.256 36.0569 99.17 36.5009 99.17H37.4129V99.056C37.4129 98.808 37.3409 98.618 37.1969 98.486C37.0529 98.354 36.8409 98.288 36.5609 98.288C36.3729 98.288 36.1889 98.32 36.0089 98.384C35.8289 98.444 35.6769 98.526 35.5529 98.63L35.3129 98.198C35.4769 98.066 35.6729 97.966 35.9009 97.898C36.1289 97.826 36.3709 97.79 36.6269 97.79ZM36.4949 100.592C36.7149 100.592 36.9049 100.544 37.0649 100.448C37.2249 100.348 37.3409 100.208 37.4129 100.028V99.584H36.5249C36.0369 99.584 35.7929 99.748 35.7929 100.076C35.7929 100.236 35.8549 100.362 35.9789 100.454C36.1029 100.546 36.2749 100.592 36.4949 100.592ZM42.0724 96.548V101H41.5204V100.496C41.3924 100.672 41.2304 100.806 41.0344 100.898C40.8384 100.99 40.6224 101.036 40.3864 101.036C40.0784 101.036 39.8024 100.968 39.5584 100.832C39.3144 100.696 39.1224 100.506 38.9824 100.262C38.8464 100.014 38.7784 99.73 38.7784 99.41C38.7784 99.09 38.8464 98.808 38.9824 98.564C39.1224 98.32 39.3144 98.13 39.5584 97.994C39.8024 97.858 40.0784 97.79 40.3864 97.79C40.6144 97.79 40.8244 97.834 41.0164 97.922C41.2084 98.006 41.3684 98.132 41.4964 98.3V96.548H42.0724ZM40.4344 100.532C40.6344 100.532 40.8164 100.486 40.9804 100.394C41.1444 100.298 41.2724 100.166 41.3644 99.998C41.4564 99.826 41.5024 99.63 41.5024 99.41C41.5024 99.19 41.4564 98.996 41.3644 98.828C41.2724 98.656 41.1444 98.524 40.9804 98.432C40.8164 98.34 40.6344 98.294 40.4344 98.294C40.2304 98.294 40.0464 98.34 39.8824 98.432C39.7224 98.524 39.5944 98.656 39.4984 98.828C39.4064 98.996 39.3604 99.19 39.3604 99.41C39.3604 99.63 39.4064 99.826 39.4984 99.998C39.5944 100.166 39.7224 100.298 39.8824 100.394C40.0464 100.486 40.2304 100.532 40.4344 100.532ZM46.0362 99.428C46.0362 99.472 46.0322 99.53 46.0242 99.602H43.4442C43.4802 99.882 43.6022 100.108 43.8102 100.28C44.0222 100.448 44.2842 100.532 44.5962 100.532C44.9762 100.532 45.2822 100.404 45.5142 100.148L45.8322 100.52C45.6882 100.688 45.5082 100.816 45.2922 100.904C45.0802 100.992 44.8422 101.036 44.5782 101.036C44.2422 101.036 43.9442 100.968 43.6842 100.832C43.4242 100.692 43.2222 100.498 43.0782 100.25C42.9382 100.002 42.8682 99.722 42.8682 99.41C42.8682 99.102 42.9362 98.824 43.0722 98.576C43.2122 98.328 43.4022 98.136 43.6422 98C43.8862 97.86 44.1602 97.79 44.4642 97.79C44.7682 97.79 45.0382 97.86 45.2742 98C45.5142 98.136 45.7002 98.328 45.8322 98.576C45.9682 98.824 46.0362 99.108 46.0362 99.428ZM44.4642 98.276C44.1882 98.276 43.9562 98.36 43.7682 98.528C43.5842 98.696 43.4762 98.916 43.4442 99.188H45.4842C45.4522 98.92 45.3422 98.702 45.1542 98.534C44.9702 98.362 44.7402 98.276 44.4642 98.276ZM47.388 98.354C47.488 98.17 47.636 98.03 47.832 97.934C48.028 97.838 48.266 97.79 48.546 97.79V98.348C48.514 98.344 48.47 98.342 48.414 98.342C48.102 98.342 47.856 98.436 47.676 98.624C47.5 98.808 47.412 99.072 47.412 99.416V101H46.836V97.82H47.388V98.354ZM52.2163 101.048C51.9003 101.048 51.5943 101 51.2983 100.904C51.0063 100.804 50.7763 100.676 50.6083 100.52L50.8303 100.052C50.9903 100.196 51.1943 100.314 51.4423 100.406C51.6943 100.494 51.9523 100.538 52.2163 100.538C52.5643 100.538 52.8243 100.48 52.9963 100.364C53.1683 100.244 53.2543 100.086 53.2543 99.89C53.2543 99.746 53.2063 99.63 53.1103 99.542C53.0183 99.45 52.9023 99.38 52.7623 99.332C52.6263 99.284 52.4323 99.23 52.1803 99.17C51.8643 99.094 51.6083 99.018 51.4123 98.942C51.2203 98.866 51.0543 98.75 50.9143 98.594C50.7783 98.434 50.7103 98.22 50.7103 97.952C50.7103 97.728 50.7683 97.526 50.8843 97.346C51.0043 97.166 51.1843 97.022 51.4243 96.914C51.6643 96.806 51.9623 96.752 52.3183 96.752C52.5663 96.752 52.8103 96.784 53.0503 96.848C53.2903 96.912 53.4963 97.004 53.6683 97.124L53.4703 97.604C53.2943 97.492 53.1063 97.408 52.9063 97.352C52.7063 97.292 52.5103 97.262 52.3183 97.262C51.9783 97.262 51.7223 97.324 51.5503 97.448C51.3823 97.572 51.2983 97.732 51.2983 97.928C51.2983 98.072 51.3463 98.19 51.4423 98.282C51.5383 98.37 51.6563 98.44 51.7963 98.492C51.9403 98.54 52.1343 98.592 52.3783 98.648C52.6943 98.724 52.9483 98.8 53.1403 98.876C53.3323 98.952 53.4963 99.068 53.6323 99.224C53.7723 99.38 53.8423 99.59 53.8423 99.854C53.8423 100.074 53.7823 100.276 53.6623 100.46C53.5423 100.64 53.3603 100.784 53.1163 100.892C52.8723 100.996 52.5723 101.048 52.2163 101.048ZM55.7929 97.79C56.2329 97.79 56.5689 97.898 56.8009 98.114C57.0369 98.33 57.1549 98.652 57.1549 99.08V101H56.6089V100.58C56.5129 100.728 56.3749 100.842 56.1949 100.922C56.0189 100.998 55.8089 101.036 55.5649 101.036C55.2089 101.036 54.9229 100.95 54.7069 100.778C54.4949 100.606 54.3889 100.38 54.3889 100.1C54.3889 99.82 54.4909 99.596 54.6949 99.428C54.8989 99.256 55.2229 99.17 55.6669 99.17H56.5789V99.056C56.5789 98.808 56.5069 98.618 56.3629 98.486C56.2189 98.354 56.0069 98.288 55.7269 98.288C55.5389 98.288 55.3549 98.32 55.1749 98.384C54.9949 98.444 54.8429 98.526 54.7189 98.63L54.4789 98.198C54.6429 98.066 54.8389 97.966 55.0669 97.898C55.2949 97.826 55.5369 97.79 55.7929 97.79ZM55.6609 100.592C55.8809 100.592 56.0709 100.544 56.2309 100.448C56.3909 100.348 56.5069 100.208 56.5789 100.028V99.584H55.6909C55.2029 99.584 54.9589 99.748 54.9589 100.076C54.9589 100.236 55.0209 100.362 55.1449 100.454C55.2689 100.546 55.4409 100.592 55.6609 100.592ZM60.0088 100.814C59.9248 100.886 59.8208 100.942 59.6968 100.982C59.5728 101.018 59.4448 101.036 59.3128 101.036C58.9928 101.036 58.7448 100.95 58.5688 100.778C58.3928 100.606 58.3048 100.36 58.3048 100.04V98.294H57.7648V97.82H58.3048V97.124H58.8808V97.82H59.7928V98.294H58.8808V100.016C58.8808 100.188 58.9228 100.32 59.0068 100.412C59.0948 100.504 59.2188 100.55 59.3788 100.55C59.5548 100.55 59.7048 100.5 59.8288 100.4L60.0088 100.814ZM60.7052 97.82H61.2812V101H60.7052V97.82ZM60.9932 97.208C60.8812 97.208 60.7872 97.172 60.7112 97.1C60.6392 97.028 60.6032 96.94 60.6032 96.836C60.6032 96.732 60.6392 96.644 60.7112 96.572C60.7872 96.496 60.8812 96.458 60.9932 96.458C61.1052 96.458 61.1972 96.494 61.2692 96.566C61.3452 96.634 61.3832 96.72 61.3832 96.824C61.3832 96.932 61.3452 97.024 61.2692 97.1C61.1972 97.172 61.1052 97.208 60.9932 97.208ZM63.293 101.036C63.033 101.036 62.783 101.002 62.543 100.934C62.303 100.862 62.115 100.772 61.979 100.664L62.219 100.208C62.359 100.308 62.529 100.388 62.729 100.448C62.929 100.508 63.131 100.538 63.335 100.538C63.839 100.538 64.091 100.394 64.091 100.106C64.091 100.01 64.057 99.934 63.989 99.878C63.921 99.822 63.835 99.782 63.731 99.758C63.631 99.73 63.487 99.7 63.299 99.668C63.043 99.628 62.833 99.582 62.669 99.53C62.509 99.478 62.371 99.39 62.255 99.266C62.139 99.142 62.081 98.968 62.081 98.744C62.081 98.456 62.201 98.226 62.441 98.054C62.681 97.878 63.003 97.79 63.407 97.79C63.619 97.79 63.831 97.816 64.043 97.868C64.255 97.92 64.429 97.99 64.565 98.078L64.319 98.534C64.059 98.366 63.753 98.282 63.401 98.282C63.157 98.282 62.971 98.322 62.843 98.402C62.715 98.482 62.651 98.588 62.651 98.72C62.651 98.824 62.687 98.906 62.759 98.966C62.831 99.026 62.919 99.07 63.023 99.098C63.131 99.126 63.281 99.158 63.473 99.194C63.729 99.238 63.935 99.286 64.091 99.338C64.251 99.386 64.387 99.47 64.499 99.59C64.611 99.71 64.667 99.878 64.667 100.094C64.667 100.382 64.543 100.612 64.295 100.784C64.051 100.952 63.717 101.036 63.293 101.036ZM66.5508 96.986C66.2068 96.986 66.0348 97.172 66.0348 97.544V97.82H66.9588V98.294H66.0468V101H65.4708V98.294H64.9308V97.82H65.4708V97.538C65.4708 97.222 65.5628 96.972 65.7468 96.788C65.9308 96.604 66.1888 96.512 66.5208 96.512C66.6488 96.512 66.7688 96.528 66.8808 96.56C66.9928 96.592 67.0888 96.638 67.1688 96.698L66.9948 97.136C66.8628 97.036 66.7148 96.986 66.5508 96.986ZM68.6015 97.79C69.0415 97.79 69.3775 97.898 69.6095 98.114C69.8455 98.33 69.9635 98.652 69.9635 99.08V101H69.4175V100.58C69.3215 100.728 69.1835 100.842 69.0035 100.922C68.8275 100.998 68.6175 101.036 68.3735 101.036C68.0175 101.036 67.7315 100.95 67.5155 100.778C67.3035 100.606 67.1975 100.38 67.1975 100.1C67.1975 99.82 67.2995 99.596 67.5035 99.428C67.7075 99.256 68.0315 99.17 68.4755 99.17H69.3875V99.056C69.3875 98.808 69.3155 98.618 69.1715 98.486C69.0275 98.354 68.8155 98.288 68.5355 98.288C68.3475 98.288 68.1635 98.32 67.9835 98.384C67.8035 98.444 67.6515 98.526 67.5275 98.63L67.2875 98.198C67.4515 98.066 67.6475 97.966 67.8755 97.898C68.1035 97.826 68.3455 97.79 68.6015 97.79ZM68.4695 100.592C68.6895 100.592 68.8795 100.544 69.0395 100.448C69.1995 100.348 69.3155 100.208 69.3875 100.028V99.584H68.4995C68.0115 99.584 67.7675 99.748 67.7675 100.076C67.7675 100.236 67.8295 100.362 67.9535 100.454C68.0775 100.546 68.2495 100.592 68.4695 100.592ZM72.433 101.036C72.109 101.036 71.819 100.966 71.563 100.826C71.311 100.686 71.113 100.494 70.969 100.25C70.825 100.002 70.753 99.722 70.753 99.41C70.753 99.098 70.825 98.82 70.969 98.576C71.113 98.328 71.311 98.136 71.563 98C71.819 97.86 72.109 97.79 72.433 97.79C72.721 97.79 72.977 97.848 73.201 97.964C73.429 98.08 73.605 98.248 73.729 98.468L73.291 98.75C73.191 98.598 73.067 98.484 72.919 98.408C72.771 98.332 72.607 98.294 72.427 98.294C72.219 98.294 72.031 98.34 71.863 98.432C71.699 98.524 71.569 98.656 71.473 98.828C71.381 98.996 71.335 99.19 71.335 99.41C71.335 99.634 71.381 99.832 71.473 100.004C71.569 100.172 71.699 100.302 71.863 100.394C72.031 100.486 72.219 100.532 72.427 100.532C72.607 100.532 72.771 100.494 72.919 100.418C73.067 100.342 73.191 100.228 73.291 100.076L73.729 100.352C73.605 100.572 73.429 100.742 73.201 100.862C72.977 100.978 72.721 101.036 72.433 101.036ZM76.3037 100.814C76.2197 100.886 76.1157 100.942 75.9917 100.982C75.8677 101.018 75.7397 101.036 75.6077 101.036C75.2877 101.036 75.0397 100.95 74.8637 100.778C74.6877 100.606 74.5997 100.36 74.5997 100.04V98.294H74.0597V97.82H74.5997V97.124H75.1757V97.82H76.0877V98.294H75.1757V100.016C75.1757 100.188 75.2177 100.32 75.3017 100.412C75.3897 100.504 75.5137 100.55 75.6737 100.55C75.8497 100.55 75.9997 100.5 76.1237 100.4L76.3037 100.814ZM77.0001 97.82H77.5761V101H77.0001V97.82ZM77.2881 97.208C77.1761 97.208 77.0821 97.172 77.0061 97.1C76.9341 97.028 76.8981 96.94 76.8981 96.836C76.8981 96.732 76.9341 96.644 77.0061 96.572C77.0821 96.496 77.1761 96.458 77.2881 96.458C77.4001 96.458 77.4921 96.494 77.5641 96.566C77.6401 96.634 77.6781 96.72 77.6781 96.824C77.6781 96.932 77.6401 97.024 77.5641 97.1C77.4921 97.172 77.4001 97.208 77.2881 97.208ZM80.0379 101.036C79.7219 101.036 79.4379 100.966 79.1859 100.826C78.9339 100.686 78.7359 100.494 78.5919 100.25C78.4519 100.002 78.3819 99.722 78.3819 99.41C78.3819 99.098 78.4519 98.82 78.5919 98.576C78.7359 98.328 78.9339 98.136 79.1859 98C79.4379 97.86 79.7219 97.79 80.0379 97.79C80.3539 97.79 80.6359 97.86 80.8839 98C81.1359 98.136 81.3319 98.328 81.4719 98.576C81.6159 98.82 81.6879 99.098 81.6879 99.41C81.6879 99.722 81.6159 100.002 81.4719 100.25C81.3319 100.494 81.1359 100.686 80.8839 100.826C80.6359 100.966 80.3539 101.036 80.0379 101.036ZM80.0379 100.532C80.2419 100.532 80.4239 100.486 80.5839 100.394C80.7479 100.298 80.8759 100.166 80.9679 99.998C81.0599 99.826 81.1059 99.63 81.1059 99.41C81.1059 99.19 81.0599 98.996 80.9679 98.828C80.8759 98.656 80.7479 98.524 80.5839 98.432C80.4239 98.34 80.2419 98.294 80.0379 98.294C79.8339 98.294 79.6499 98.34 79.4859 98.432C79.3259 98.524 79.1979 98.656 79.1019 98.828C79.0099 98.996 78.9639 99.19 78.9639 99.41C78.9639 99.63 79.0099 99.826 79.1019 99.998C79.1979 100.166 79.3259 100.298 79.4859 100.394C79.6499 100.486 79.8339 100.532 80.0379 100.532ZM84.1825 97.79C84.5865 97.79 84.9065 97.908 85.1425 98.144C85.3825 98.376 85.5025 98.718 85.5025 99.17V101H84.9265V99.236C84.9265 98.928 84.8525 98.696 84.7045 98.54C84.5565 98.384 84.3445 98.306 84.0685 98.306C83.7565 98.306 83.5105 98.398 83.3305 98.582C83.1505 98.762 83.0605 99.022 83.0605 99.362V101H82.4845V97.82H83.0365V98.3C83.1525 98.136 83.3085 98.01 83.5045 97.922C83.7045 97.834 83.9305 97.79 84.1825 97.79Z" fill="#3F4042"/>
<rect x="42" y="78" width="29" height="13" fill="#3F4042"/>
<path d="M50.9345 86.208V87H47.7605V86.37L49.3805 84.84C49.5525 84.676 49.6685 84.536 49.7285 84.42C49.7885 84.3 49.8185 84.182 49.8185 84.066C49.8185 83.898 49.7605 83.77 49.6445 83.682C49.5325 83.59 49.3665 83.544 49.1465 83.544C48.9625 83.544 48.7965 83.58 48.6485 83.652C48.5005 83.72 48.3765 83.824 48.2765 83.964L47.5685 83.508C47.7325 83.264 47.9585 83.074 48.2465 82.938C48.5345 82.798 48.8645 82.728 49.2365 82.728C49.5485 82.728 49.8205 82.78 50.0525 82.884C50.2885 82.984 50.4705 83.128 50.5985 83.316C50.7305 83.5 50.7965 83.718 50.7965 83.97C50.7965 84.198 50.7485 84.412 50.6525 84.612C50.5565 84.812 50.3705 85.04 50.0945 85.296L49.1285 86.208H50.9345ZM54.1238 87.072C53.7758 87.072 53.4658 86.986 53.1938 86.814C52.9218 86.642 52.7078 86.394 52.5518 86.07C52.3998 85.742 52.3238 85.352 52.3238 84.9C52.3238 84.448 52.3998 84.06 52.5518 83.736C52.7078 83.408 52.9218 83.158 53.1938 82.986C53.4658 82.814 53.7758 82.728 54.1238 82.728C54.4718 82.728 54.7818 82.814 55.0538 82.986C55.3258 83.158 55.5378 83.408 55.6898 83.736C55.8458 84.06 55.9238 84.448 55.9238 84.9C55.9238 85.352 55.8458 85.742 55.6898 86.07C55.5378 86.394 55.3258 86.642 55.0538 86.814C54.7818 86.986 54.4718 87.072 54.1238 87.072ZM54.1238 86.25C54.3798 86.25 54.5798 86.14 54.7238 85.92C54.8718 85.7 54.9458 85.36 54.9458 84.9C54.9458 84.44 54.8718 84.1 54.7238 83.88C54.5798 83.66 54.3798 83.55 54.1238 83.55C53.8718 83.55 53.6718 83.66 53.5238 83.88C53.3798 84.1 53.3078 84.44 53.3078 84.9C53.3078 85.36 53.3798 85.7 53.5238 85.92C53.6718 86.14 53.8718 86.25 54.1238 86.25ZM58.981 82.8V87H58.009V83.58H57.169V82.8H58.981ZM63.5846 84.792C63.7926 84.896 63.9506 85.032 64.0586 85.2C64.1706 85.368 64.2266 85.562 64.2266 85.782C64.2266 86.042 64.1526 86.27 64.0046 86.466C63.8566 86.658 63.6486 86.808 63.3806 86.916C63.1126 87.02 62.8026 87.072 62.4506 87.072C62.0986 87.072 61.7886 87.02 61.5206 86.916C61.2566 86.808 61.0506 86.658 60.9026 86.466C60.7586 86.27 60.6866 86.042 60.6866 85.782C60.6866 85.562 60.7406 85.368 60.8486 85.2C60.9606 85.032 61.1186 84.896 61.3226 84.792C61.1666 84.696 61.0466 84.576 60.9626 84.432C60.8786 84.284 60.8366 84.116 60.8366 83.928C60.8366 83.684 60.9046 83.472 61.0406 83.292C61.1766 83.112 61.3666 82.974 61.6106 82.878C61.8546 82.778 62.1346 82.728 62.4506 82.728C62.7706 82.728 63.0526 82.778 63.2966 82.878C63.5446 82.974 63.7366 83.112 63.8726 83.292C64.0086 83.472 64.0766 83.684 64.0766 83.928C64.0766 84.116 64.0346 84.284 63.9506 84.432C63.8666 84.576 63.7446 84.696 63.5846 84.792ZM62.4506 83.442C62.2546 83.442 62.0966 83.49 61.9766 83.586C61.8606 83.678 61.8026 83.806 61.8026 83.97C61.8026 84.13 61.8606 84.256 61.9766 84.348C62.0926 84.44 62.2506 84.486 62.4506 84.486C62.6506 84.486 62.8106 84.44 62.9306 84.348C63.0506 84.256 63.1106 84.13 63.1106 83.97C63.1106 83.806 63.0506 83.678 62.9306 83.586C62.8106 83.49 62.6506 83.442 62.4506 83.442ZM62.4506 86.358C62.6946 86.358 62.8866 86.304 63.0266 86.196C63.1706 86.084 63.2426 85.936 63.2426 85.752C63.2426 85.568 63.1706 85.422 63.0266 85.314C62.8866 85.206 62.6946 85.152 62.4506 85.152C62.2106 85.152 62.0206 85.206 61.8806 85.314C61.7406 85.422 61.6706 85.568 61.6706 85.752C61.6706 85.94 61.7406 86.088 61.8806 86.196C62.0206 86.304 62.2106 86.358 62.4506 86.358Z" fill="white"/>
</svg>
