<svg width="112" height="112" viewBox="0 0 112 112" fill="none" xmlns="http://www.w3.org/2000/svg">
<circle cx="56" cy="56" r="44.5" stroke="#3F4042"/>
<circle cx="56" cy="56" r="41.5" stroke="#3F4042"/>
<path d="M25.42 53.48H22.06V51.5H31.21V53.48H27.85V62H25.42V53.48ZM38.456 62.18C37.366 62.18 36.381 61.945 35.501 61.475C34.631 61.005 33.946 60.36 33.446 59.54C32.956 58.71 32.711 57.78 32.711 56.75C32.711 55.72 32.956 54.795 33.446 53.975C33.946 53.145 34.631 52.495 35.501 52.025C36.381 51.555 37.366 51.32 38.456 51.32C39.546 51.32 40.526 51.555 41.396 52.025C42.266 52.495 42.951 53.145 43.451 53.975C43.951 54.795 44.201 55.72 44.201 56.75C44.201 57.78 43.951 58.71 43.451 59.54C42.951 60.36 42.266 61.005 41.396 61.475C40.526 61.945 39.546 62.18 38.456 62.18ZM38.456 60.11C39.076 60.11 39.636 59.97 40.136 59.69C40.636 59.4 41.026 59 41.306 58.49C41.596 57.98 41.741 57.4 41.741 56.75C41.741 56.1 41.596 55.52 41.306 55.01C41.026 54.5 40.636 54.105 40.136 53.825C39.636 53.535 39.076 53.39 38.456 53.39C37.836 53.39 37.276 53.535 36.776 53.825C36.276 54.105 35.881 54.5 35.591 55.01C35.311 55.52 35.171 56.1 35.171 56.75C35.171 57.4 35.311 57.98 35.591 58.49C35.881 59 36.276 59.4 36.776 59.69C37.276 59.97 37.836 60.11 38.456 60.11ZM51.5722 51.5C52.5022 51.5 53.3072 51.655 53.9872 51.965C54.6772 52.275 55.2072 52.715 55.5772 53.285C55.9472 53.855 56.1322 54.53 56.1322 55.31C56.1322 56.08 55.9472 56.755 55.5772 57.335C55.2072 57.905 54.6772 58.345 53.9872 58.655C53.3072 58.955 52.5022 59.105 51.5722 59.105H49.4572V62H47.0272V51.5H51.5722ZM51.4372 57.125C52.1672 57.125 52.7222 56.97 53.1022 56.66C53.4822 56.34 53.6722 55.89 53.6722 55.31C53.6722 54.72 53.4822 54.27 53.1022 53.96C52.7222 53.64 52.1672 53.48 51.4372 53.48H49.4572V57.125H51.4372ZM67.6516 51.5V62H65.2216V53.45H63.1216V51.5H67.6516ZM74.9756 62.18C74.1056 62.18 73.3306 61.965 72.6506 61.535C71.9706 61.105 71.4356 60.485 71.0456 59.675C70.6656 58.855 70.4756 57.88 70.4756 56.75C70.4756 55.62 70.6656 54.65 71.0456 53.84C71.4356 53.02 71.9706 52.395 72.6506 51.965C73.3306 51.535 74.1056 51.32 74.9756 51.32C75.8456 51.32 76.6206 51.535 77.3006 51.965C77.9806 52.395 78.5106 53.02 78.8906 53.84C79.2806 54.65 79.4756 55.62 79.4756 56.75C79.4756 57.88 79.2806 58.855 78.8906 59.675C78.5106 60.485 77.9806 61.105 77.3006 61.535C76.6206 61.965 75.8456 62.18 74.9756 62.18ZM74.9756 60.125C75.6156 60.125 76.1156 59.85 76.4756 59.3C76.8456 58.75 77.0306 57.9 77.0306 56.75C77.0306 55.6 76.8456 54.75 76.4756 54.2C76.1156 53.65 75.6156 53.375 74.9756 53.375C74.3456 53.375 73.8456 53.65 73.4756 54.2C73.1156 54.75 72.9356 55.6 72.9356 56.75C72.9356 57.9 73.1156 58.75 73.4756 59.3C73.8456 59.85 74.3456 60.125 74.9756 60.125ZM86.1563 62.18C85.2863 62.18 84.5113 61.965 83.8313 61.535C83.1513 61.105 82.6163 60.485 82.2263 59.675C81.8463 58.855 81.6563 57.88 81.6563 56.75C81.6563 55.62 81.8463 54.65 82.2263 53.84C82.6163 53.02 83.1513 52.395 83.8313 51.965C84.5113 51.535 85.2863 51.32 86.1563 51.32C87.0263 51.32 87.8013 51.535 88.4813 51.965C89.1613 52.395 89.6913 53.02 90.0713 53.84C90.4613 54.65 90.6563 55.62 90.6563 56.75C90.6563 57.88 90.4613 58.855 90.0713 59.675C89.6913 60.485 89.1613 61.105 88.4813 61.535C87.8013 61.965 87.0263 62.18 86.1563 62.18ZM86.1563 60.125C86.7963 60.125 87.2963 59.85 87.6563 59.3C88.0263 58.75 88.2113 57.9 88.2113 56.75C88.2113 55.6 88.0263 54.75 87.6563 54.2C87.2963 53.65 86.7963 53.375 86.1563 53.375C85.5263 53.375 85.0263 53.65 84.6563 54.2C84.2963 54.75 84.1163 55.6 84.1163 56.75C84.1163 57.9 84.2963 58.75 84.6563 59.3C85.0263 59.85 85.5263 60.125 86.1563 60.125Z" fill="#3F4042"/>
<path d="M44.7478 75.6H41.7718L41.1558 77H40.3318L42.8678 71.4H43.6598L46.2038 77H45.3638L44.7478 75.6ZM44.4678 74.96L43.2598 72.216L42.0518 74.96H44.4678ZM50.8011 72.76V77H50.0731V76.36C49.9184 76.5787 49.7131 76.7493 49.4571 76.872C49.2064 76.9893 48.9318 77.048 48.6331 77.048C48.0678 77.048 47.6224 76.8933 47.2971 76.584C46.9718 76.2693 46.8091 75.808 46.8091 75.2V72.76H47.5771V75.112C47.5771 75.5227 47.6758 75.8347 47.8731 76.048C48.0704 76.256 48.3531 76.36 48.7211 76.36C49.1264 76.36 49.4464 76.2373 49.6811 75.992C49.9158 75.7467 50.0331 75.4 50.0331 74.952V72.76H50.8011ZM54.6472 76.752C54.5352 76.848 54.3965 76.9227 54.2312 76.976C54.0658 77.024 53.8952 77.048 53.7192 77.048C53.2925 77.048 52.9618 76.9333 52.7272 76.704C52.4925 76.4747 52.3752 76.1467 52.3752 75.72V73.392H51.6552V72.76H52.3752V71.832H53.1432V72.76H54.3592V73.392H53.1432V75.688C53.1432 75.9173 53.1992 76.0933 53.3112 76.216C53.4285 76.3387 53.5938 76.4 53.8072 76.4C54.0418 76.4 54.2418 76.3333 54.4072 76.2L54.6472 76.752ZM57.8397 72.72C58.3783 72.72 58.805 72.8773 59.1197 73.192C59.4397 73.5013 59.5997 73.9573 59.5997 74.56V77H58.8317V74.648C58.8317 74.2373 58.733 73.928 58.5357 73.72C58.3383 73.512 58.0557 73.408 57.6877 73.408C57.2717 73.408 56.9437 73.5307 56.7037 73.776C56.4637 74.016 56.3437 74.3627 56.3437 74.816V77H55.5757V71.064H56.3437V73.36C56.5037 73.1573 56.7117 73 56.9677 72.888C57.229 72.776 57.5197 72.72 57.8397 72.72ZM62.8604 77.048C62.4391 77.048 62.0604 76.9547 61.7244 76.768C61.3884 76.5813 61.1244 76.3253 60.9324 76C60.7457 75.6693 60.6524 75.296 60.6524 74.88C60.6524 74.464 60.7457 74.0933 60.9324 73.768C61.1244 73.4373 61.3884 73.1813 61.7244 73C62.0604 72.8133 62.4391 72.72 62.8604 72.72C63.2817 72.72 63.6577 72.8133 63.9884 73C64.3244 73.1813 64.5857 73.4373 64.7724 73.768C64.9644 74.0933 65.0604 74.464 65.0604 74.88C65.0604 75.296 64.9644 75.6693 64.7724 76C64.5857 76.3253 64.3244 76.5813 63.9884 76.768C63.6577 76.9547 63.2817 77.048 62.8604 77.048ZM62.8604 76.376C63.1324 76.376 63.3751 76.3147 63.5884 76.192C63.8071 76.064 63.9777 75.888 64.1004 75.664C64.2231 75.4347 64.2844 75.1733 64.2844 74.88C64.2844 74.5867 64.2231 74.328 64.1004 74.104C63.9777 73.8747 63.8071 73.6987 63.5884 73.576C63.3751 73.4533 63.1324 73.392 62.8604 73.392C62.5884 73.392 62.3431 73.4533 62.1244 73.576C61.9111 73.6987 61.7404 73.8747 61.6124 74.104C61.4897 74.328 61.4284 74.5867 61.4284 74.88C61.4284 75.1733 61.4897 75.4347 61.6124 75.664C61.7404 75.888 61.9111 76.064 62.1244 76.192C62.3431 76.3147 62.5884 76.376 62.8604 76.376ZM66.8585 73.472C66.9919 73.2267 67.1892 73.04 67.4505 72.912C67.7119 72.784 68.0292 72.72 68.4025 72.72V73.464C68.3599 73.4587 68.3012 73.456 68.2265 73.456C67.8105 73.456 67.4825 73.5813 67.2425 73.832C67.0079 74.0773 66.8905 74.4293 66.8905 74.888V77H66.1225V72.76H66.8585V73.472ZM70.5963 77.048C70.2497 77.048 69.9163 77.0027 69.5963 76.912C69.2763 76.816 69.0257 76.696 68.8443 76.552L69.1643 75.944C69.351 76.0773 69.5777 76.184 69.8443 76.264C70.111 76.344 70.3803 76.384 70.6523 76.384C71.3243 76.384 71.6603 76.192 71.6603 75.808C71.6603 75.68 71.615 75.5787 71.5243 75.504C71.4337 75.4293 71.319 75.376 71.1803 75.344C71.047 75.3067 70.855 75.2667 70.6043 75.224C70.263 75.1707 69.983 75.1093 69.7643 75.04C69.551 74.9707 69.367 74.8533 69.2123 74.688C69.0577 74.5227 68.9803 74.2907 68.9803 73.992C68.9803 73.608 69.1403 73.3013 69.4603 73.072C69.7803 72.8373 70.2097 72.72 70.7483 72.72C71.031 72.72 71.3137 72.7547 71.5963 72.824C71.879 72.8933 72.111 72.9867 72.2923 73.104L71.9643 73.712C71.6177 73.488 71.2097 73.376 70.7403 73.376C70.415 73.376 70.167 73.4293 69.9963 73.536C69.8257 73.6427 69.7403 73.784 69.7403 73.96C69.7403 74.0987 69.7883 74.208 69.8843 74.288C69.9803 74.368 70.0977 74.4267 70.2363 74.464C70.3803 74.5013 70.5803 74.544 70.8363 74.592C71.1777 74.6507 71.4523 74.7147 71.6603 74.784C71.8737 74.848 72.055 74.96 72.2043 75.12C72.3537 75.28 72.4283 75.504 72.4283 75.792C72.4283 76.176 72.263 76.4827 71.9323 76.712C71.607 76.936 71.1617 77.048 70.5963 77.048Z" fill="#3F4042"/>
<g clip-path="url(#clip0)">
<path d="M61.0063 33.8758L57.485 33.4578L56 30.2361L54.5147 33.4578L50.9938 33.8758L53.5971 36.2841L52.9058 39.7639L56 38.0309L59.0942 39.7639L58.403 36.2841L61.0063 33.8758Z" fill="#3F4042"/>
</g>
<g clip-path="url(#clip1)">
<path d="M48.0063 33.8758L44.485 33.4578L43 30.2361L41.5147 33.4578L37.9938 33.8758L40.5971 36.2841L39.9058 39.7639L43 38.0309L46.0942 39.7639L45.403 36.2841L48.0063 33.8758Z" fill="#3F4042"/>
</g>
<g clip-path="url(#clip2)">
<path d="M74.0063 33.8758L70.485 33.4578L69 30.2361L67.5147 33.4578L63.9938 33.8758L66.5971 36.2841L65.9058 39.7639L69 38.0309L72.0942 39.7639L71.403 36.2841L74.0063 33.8758Z" fill="#3F4042"/>
</g>
<defs>
<clipPath id="clip0">
<rect width="10" height="10" fill="white" transform="translate(51 30)"/>
</clipPath>
<clipPath id="clip1">
<rect width="10" height="10" fill="white" transform="translate(38 30)"/>
</clipPath>
<clipPath id="clip2">
<rect width="10" height="10" fill="white" transform="translate(64 30)"/>
</clipPath>
</defs>
</svg>
