<svg width="112" height="112" viewBox="0 0 112 112" fill="none" xmlns="http://www.w3.org/2000/svg">
<path d="M40.13 54.12C39.5767 54.12 39.04 54.0467 38.52 53.9C38.0067 53.7467 37.5933 53.55 37.28 53.31L37.83 52.09C38.13 52.31 38.4867 52.4867 38.9 52.62C39.3133 52.7533 39.7267 52.82 40.14 52.82C40.6 52.82 40.94 52.7533 41.16 52.62C41.38 52.48 41.49 52.2967 41.49 52.07C41.49 51.9033 41.4233 51.7667 41.29 51.66C41.1633 51.5467 40.9967 51.4567 40.79 51.39C40.59 51.3233 40.3167 51.25 39.97 51.17C39.4367 51.0433 39 50.9167 38.66 50.79C38.32 50.6633 38.0267 50.46 37.78 50.18C37.54 49.9 37.42 49.5267 37.42 49.06C37.42 48.6533 37.53 48.2867 37.75 47.96C37.97 47.6267 38.3 47.3633 38.74 47.17C39.1867 46.9767 39.73 46.88 40.37 46.88C40.8167 46.88 41.2533 46.9333 41.68 47.04C42.1067 47.1467 42.48 47.3 42.8 47.5L42.3 48.73C41.6533 48.3633 41.0067 48.18 40.36 48.18C39.9067 48.18 39.57 48.2533 39.35 48.4C39.1367 48.5467 39.03 48.74 39.03 48.98C39.03 49.22 39.1533 49.4 39.4 49.52C39.6533 49.6333 40.0367 49.7467 40.55 49.86C41.0833 49.9867 41.52 50.1133 41.86 50.24C42.2 50.3667 42.49 50.5667 42.73 50.84C42.9767 51.1133 43.1 51.4833 43.1 51.95C43.1 52.35 42.9867 52.7167 42.76 53.05C42.54 53.3767 42.2067 53.6367 41.76 53.83C41.3133 54.0233 40.77 54.12 40.13 54.12ZM49.517 48.62V54H48.037V53.36C47.8303 53.5933 47.5836 53.7733 47.297 53.9C47.0103 54.02 46.7003 54.08 46.367 54.08C45.6603 54.08 45.1003 53.8767 44.687 53.47C44.2736 53.0633 44.067 52.46 44.067 51.66V48.62H45.627V51.43C45.627 52.2967 45.9903 52.73 46.717 52.73C47.0903 52.73 47.3903 52.61 47.617 52.37C47.8436 52.1233 47.957 51.76 47.957 51.28V48.62H49.517ZM54.1422 48.54C54.6422 48.54 55.0955 48.6567 55.5022 48.89C55.9155 49.1167 56.2389 49.44 56.4722 49.86C56.7055 50.2733 56.8222 50.7567 56.8222 51.31C56.8222 51.8633 56.7055 52.35 56.4722 52.77C56.2389 53.1833 55.9155 53.5067 55.5022 53.74C55.0955 53.9667 54.6422 54.08 54.1422 54.08C53.4555 54.08 52.9155 53.8633 52.5222 53.43V55.94H50.9622V48.62H52.4522V49.24C52.8389 48.7733 53.4022 48.54 54.1422 48.54ZM53.8722 52.8C54.2722 52.8 54.5989 52.6667 54.8522 52.4C55.1122 52.1267 55.2422 51.7633 55.2422 51.31C55.2422 50.8567 55.1122 50.4967 54.8522 50.23C54.5989 49.9567 54.2722 49.82 53.8722 49.82C53.4722 49.82 53.1422 49.9567 52.8822 50.23C52.6289 50.4967 52.5022 50.8567 52.5022 51.31C52.5022 51.7633 52.6289 52.1267 52.8822 52.4C53.1422 52.6667 53.4722 52.8 53.8722 52.8ZM63.1365 51.33C63.1365 51.35 63.1265 51.49 63.1065 51.75H59.0365C59.1098 52.0833 59.2832 52.3467 59.5565 52.54C59.8298 52.7333 60.1698 52.83 60.5765 52.83C60.8565 52.83 61.1032 52.79 61.3165 52.71C61.5365 52.6233 61.7398 52.49 61.9265 52.31L62.7565 53.21C62.2498 53.79 61.5098 54.08 60.5365 54.08C59.9298 54.08 59.3932 53.9633 58.9265 53.73C58.4598 53.49 58.0998 53.16 57.8465 52.74C57.5932 52.32 57.4665 51.8433 57.4665 51.31C57.4665 50.7833 57.5898 50.31 57.8365 49.89C58.0898 49.4633 58.4332 49.1333 58.8665 48.9C59.3065 48.66 59.7965 48.54 60.3365 48.54C60.8632 48.54 61.3398 48.6533 61.7665 48.88C62.1932 49.1067 62.5265 49.4333 62.7665 49.86C63.0132 50.28 63.1365 50.77 63.1365 51.33ZM60.3465 49.72C59.9932 49.72 59.6965 49.82 59.4565 50.02C59.2165 50.22 59.0698 50.4933 59.0165 50.84H61.6665C61.6132 50.5 61.4665 50.23 61.2265 50.03C60.9865 49.8233 60.6932 49.72 60.3465 49.72ZM65.6651 49.33C65.8517 49.07 66.1017 48.8733 66.4151 48.74C66.7351 48.6067 67.1017 48.54 67.5151 48.54V49.98C67.3417 49.9667 67.2251 49.96 67.1651 49.96C66.7184 49.96 66.3684 50.0867 66.1151 50.34C65.8617 50.5867 65.7351 50.96 65.7351 51.46V54H64.1751V48.62H65.6651V49.33ZM71.6227 48.54C72.1227 48.54 72.576 48.6567 72.9827 48.89C73.396 49.1167 73.7193 49.44 73.9527 49.86C74.186 50.2733 74.3027 50.7567 74.3027 51.31C74.3027 51.8633 74.186 52.35 73.9527 52.77C73.7193 53.1833 73.396 53.5067 72.9827 53.74C72.576 53.9667 72.1227 54.08 71.6227 54.08C70.8827 54.08 70.3193 53.8467 69.9327 53.38V54H68.4427V46.58H70.0027V49.19C70.396 48.7567 70.936 48.54 71.6227 48.54ZM71.3527 52.8C71.7527 52.8 72.0793 52.6667 72.3327 52.4C72.5927 52.1267 72.7227 51.7633 72.7227 51.31C72.7227 50.8567 72.5927 50.4967 72.3327 50.23C72.0793 49.9567 71.7527 49.82 71.3527 49.82C70.9527 49.82 70.6227 49.9567 70.3627 50.23C70.1093 50.4967 69.9827 50.8567 69.9827 51.31C69.9827 51.7633 70.1093 52.1267 70.3627 52.4C70.6227 52.6667 70.9527 52.8 71.3527 52.8Z" fill="#3F4042"/>
<path d="M37.416 20.2V37H33.528V23.32H30.168V20.2H37.416ZM48.5344 37.288C47.1424 37.288 45.9024 36.944 44.8144 36.256C43.7264 35.568 42.8704 34.576 42.2464 33.28C41.6384 31.968 41.3344 30.408 41.3344 28.6C41.3344 26.792 41.6384 25.24 42.2464 23.944C42.8704 22.632 43.7264 21.632 44.8144 20.944C45.9024 20.256 47.1424 19.912 48.5344 19.912C49.9264 19.912 51.1664 20.256 52.2544 20.944C53.3424 21.632 54.1904 22.632 54.7984 23.944C55.4224 25.24 55.7344 26.792 55.7344 28.6C55.7344 30.408 55.4224 31.968 54.7984 33.28C54.1904 34.576 53.3424 35.568 52.2544 36.256C51.1664 36.944 49.9264 37.288 48.5344 37.288ZM48.5344 34C49.5584 34 50.3584 33.56 50.9344 32.68C51.5264 31.8 51.8224 30.44 51.8224 28.6C51.8224 26.76 51.5264 25.4 50.9344 24.52C50.3584 23.64 49.5584 23.2 48.5344 23.2C47.5264 23.2 46.7264 23.64 46.1344 24.52C45.5584 25.4 45.2704 26.76 45.2704 28.6C45.2704 30.44 45.5584 31.8 46.1344 32.68C46.7264 33.56 47.5264 34 48.5344 34ZM60.5268 37.192C59.8708 37.192 59.3188 36.968 58.8708 36.52C58.4228 36.072 58.1988 35.512 58.1988 34.84C58.1988 34.152 58.4228 33.6 58.8708 33.184C59.3188 32.752 59.8708 32.536 60.5268 32.536C61.1828 32.536 61.7348 32.752 62.1828 33.184C62.6308 33.6 62.8548 34.152 62.8548 34.84C62.8548 35.512 62.6308 36.072 62.1828 36.52C61.7348 36.968 61.1828 37.192 60.5268 37.192ZM72.4954 37.288C71.1034 37.288 69.8634 36.944 68.7754 36.256C67.6874 35.568 66.8314 34.576 66.2074 33.28C65.5994 31.968 65.2954 30.408 65.2954 28.6C65.2954 26.792 65.5994 25.24 66.2074 23.944C66.8314 22.632 67.6874 21.632 68.7754 20.944C69.8634 20.256 71.1034 19.912 72.4954 19.912C73.8874 19.912 75.1274 20.256 76.2154 20.944C77.3034 21.632 78.1514 22.632 78.7594 23.944C79.3834 25.24 79.6954 26.792 79.6954 28.6C79.6954 30.408 79.3834 31.968 78.7594 33.28C78.1514 34.576 77.3034 35.568 76.2154 36.256C75.1274 36.944 73.8874 37.288 72.4954 37.288ZM72.4954 34C73.5194 34 74.3194 33.56 74.8954 32.68C75.4874 31.8 75.7834 30.44 75.7834 28.6C75.7834 26.76 75.4874 25.4 74.8954 24.52C74.3194 23.64 73.5194 23.2 72.4954 23.2C71.4874 23.2 70.6874 23.64 70.0954 24.52C69.5194 25.4 69.2314 26.76 69.2314 28.6C69.2314 30.44 69.5194 31.8 70.0954 32.68C70.6874 33.56 71.4874 34 72.4954 34Z" fill="#3F4042"/>
<rect x="14" y="64" width="84" height="28" fill="#3F4042"/>
<path d="M90 55H111L105 69L111 83H90V55Z" fill="#3F4042"/>
<path d="M22 83L1 83L7 69L0.999998 55L22 55L22 83Z" fill="#3F4042"/>
<path d="M36.4442 71.096H34.5242V70.4H39.1562V71.096H37.2362V76H36.4442V71.096ZM41.294 76.048C40.8727 76.048 40.494 75.9547 40.158 75.768C39.822 75.5813 39.558 75.3253 39.366 75C39.1793 74.6693 39.086 74.296 39.086 73.88C39.086 73.464 39.1793 73.0933 39.366 72.768C39.558 72.4373 39.822 72.1813 40.158 72C40.494 71.8133 40.8727 71.72 41.294 71.72C41.7153 71.72 42.0913 71.8133 42.422 72C42.758 72.1813 43.0193 72.4373 43.206 72.768C43.398 73.0933 43.494 73.464 43.494 73.88C43.494 74.296 43.398 74.6693 43.206 75C43.0193 75.3253 42.758 75.5813 42.422 75.768C42.0913 75.9547 41.7153 76.048 41.294 76.048ZM41.294 75.376C41.566 75.376 41.8087 75.3147 42.022 75.192C42.2407 75.064 42.4113 74.888 42.534 74.664C42.6567 74.4347 42.718 74.1733 42.718 73.88C42.718 73.5867 42.6567 73.328 42.534 73.104C42.4113 72.8747 42.2407 72.6987 42.022 72.576C41.8087 72.4533 41.566 72.392 41.294 72.392C41.022 72.392 40.7767 72.4533 40.558 72.576C40.3447 72.6987 40.174 72.8747 40.046 73.104C39.9233 73.328 39.862 73.5867 39.862 73.88C39.862 74.1733 39.9233 74.4347 40.046 74.664C40.174 74.888 40.3447 75.064 40.558 75.192C40.7767 75.3147 41.022 75.376 41.294 75.376ZM46.8041 71.72C47.2148 71.72 47.5828 71.8107 47.9081 71.992C48.2335 72.1733 48.4868 72.4267 48.6681 72.752C48.8548 73.0773 48.9481 73.4533 48.9481 73.88C48.9481 74.3067 48.8548 74.6853 48.6681 75.016C48.4868 75.3413 48.2335 75.5947 47.9081 75.776C47.5828 75.9573 47.2148 76.048 46.8041 76.048C46.5001 76.048 46.2201 75.9893 45.9641 75.872C45.7135 75.7547 45.5001 75.584 45.3241 75.36V77.552H44.5561V71.76H45.2921V72.432C45.4628 72.1973 45.6788 72.0213 45.9401 71.904C46.2015 71.7813 46.4895 71.72 46.8041 71.72ZM46.7401 75.376C47.0121 75.376 47.2548 75.3147 47.4681 75.192C47.6868 75.064 47.8575 74.888 47.9801 74.664C48.1081 74.4347 48.1721 74.1733 48.1721 73.88C48.1721 73.5867 48.1081 73.328 47.9801 73.104C47.8575 72.8747 47.6868 72.6987 47.4681 72.576C47.2548 72.4533 47.0121 72.392 46.7401 72.392C46.4735 72.392 46.2308 72.456 46.0121 72.584C45.7988 72.7067 45.6281 72.88 45.5001 73.104C45.3775 73.328 45.3161 73.5867 45.3161 73.88C45.3161 74.1733 45.3775 74.4347 45.5001 74.664C45.6228 74.888 45.7935 75.064 46.0121 75.192C46.2308 75.3147 46.4735 75.376 46.7401 75.376ZM56.0137 76L54.8057 74.28C54.6564 74.2907 54.539 74.296 54.4537 74.296H53.0697V76H52.2697V70.4H54.4537C55.179 70.4 55.7497 70.5733 56.1657 70.92C56.5817 71.2667 56.7897 71.744 56.7897 72.352C56.7897 72.784 56.683 73.152 56.4697 73.456C56.2564 73.76 55.9524 73.9813 55.5577 74.12L56.8857 76H56.0137ZM54.4297 73.616C54.9364 73.616 55.323 73.5067 55.5897 73.288C55.8564 73.0693 55.9897 72.7573 55.9897 72.352C55.9897 71.9467 55.8564 71.6373 55.5897 71.424C55.323 71.2053 54.9364 71.096 54.4297 71.096H53.0697V73.616H54.4297ZM59.4751 71.72C60.0618 71.72 60.5098 71.864 60.8191 72.152C61.1338 72.44 61.2911 72.8693 61.2911 73.44V76H60.5631V75.44C60.4351 75.6373 60.2511 75.7893 60.0111 75.896C59.7765 75.9973 59.4965 76.048 59.1711 76.048C58.6965 76.048 58.3151 75.9333 58.0271 75.704C57.7445 75.4747 57.6031 75.1733 57.6031 74.8C57.6031 74.4267 57.7391 74.128 58.0111 73.904C58.2831 73.6747 58.7151 73.56 59.3071 73.56H60.5231V73.408C60.5231 73.0773 60.4271 72.824 60.2351 72.648C60.0431 72.472 59.7605 72.384 59.3871 72.384C59.1365 72.384 58.8911 72.4267 58.6511 72.512C58.4111 72.592 58.2085 72.7013 58.0431 72.84L57.7231 72.264C57.9418 72.088 58.2031 71.9547 58.5071 71.864C58.8111 71.768 59.1338 71.72 59.4751 71.72ZM59.2991 75.456C59.5925 75.456 59.8458 75.392 60.0591 75.264C60.2725 75.1307 60.4271 74.944 60.5231 74.704V74.112H59.3391C58.6885 74.112 58.3631 74.3307 58.3631 74.768C58.3631 74.9813 58.4458 75.1493 58.6111 75.272C58.7765 75.3947 59.0058 75.456 59.2991 75.456ZM65.0964 75.752C64.9844 75.848 64.8457 75.9227 64.6804 75.976C64.515 76.024 64.3444 76.048 64.1684 76.048C63.7417 76.048 63.411 75.9333 63.1764 75.704C62.9417 75.4747 62.8244 75.1467 62.8244 74.72V72.392H62.1044V71.76H62.8244V70.832H63.5924V71.76H64.8084V72.392H63.5924V74.688C63.5924 74.9173 63.6484 75.0933 63.7604 75.216C63.8777 75.3387 64.043 75.4 64.2564 75.4C64.491 75.4 64.691 75.3333 64.8564 75.2L65.0964 75.752ZM69.7163 73.904C69.7163 73.9627 69.7109 74.04 69.7003 74.136H66.2603C66.3083 74.5093 66.4709 74.8107 66.7483 75.04C67.0309 75.264 67.3803 75.376 67.7963 75.376C68.3029 75.376 68.7109 75.2053 69.0203 74.864L69.4443 75.36C69.2523 75.584 69.0123 75.7547 68.7243 75.872C68.4416 75.9893 68.1243 76.048 67.7723 76.048C67.3243 76.048 66.9269 75.9573 66.5803 75.776C66.2336 75.5893 65.9643 75.3307 65.7723 75C65.5856 74.6693 65.4923 74.296 65.4923 73.88C65.4923 73.4693 65.5829 73.0987 65.7643 72.768C65.9509 72.4373 66.2043 72.1813 66.5243 72C66.8496 71.8133 67.2149 71.72 67.6203 71.72C68.0256 71.72 68.3856 71.8133 68.7003 72C69.0203 72.1813 69.2683 72.4373 69.4443 72.768C69.6256 73.0987 69.7163 73.4773 69.7163 73.904ZM67.6203 72.368C67.2523 72.368 66.9429 72.48 66.6923 72.704C66.4469 72.928 66.3029 73.2213 66.2603 73.584H68.9803C68.9376 73.2267 68.7909 72.936 68.5403 72.712C68.2949 72.4827 67.9883 72.368 67.6203 72.368ZM74.7827 70.064V76H74.0467V75.328C73.876 75.5627 73.66 75.7413 73.3987 75.864C73.1374 75.9867 72.8494 76.048 72.5347 76.048C72.124 76.048 71.756 75.9573 71.4307 75.776C71.1054 75.5947 70.8494 75.3413 70.6627 75.016C70.4814 74.6853 70.3907 74.3067 70.3907 73.88C70.3907 73.4533 70.4814 73.0773 70.6627 72.752C70.8494 72.4267 71.1054 72.1733 71.4307 71.992C71.756 71.8107 72.124 71.72 72.5347 71.72C72.8387 71.72 73.1187 71.7787 73.3747 71.896C73.6307 72.008 73.844 72.176 74.0147 72.4V70.064H74.7827ZM72.5987 75.376C72.8654 75.376 73.108 75.3147 73.3267 75.192C73.5454 75.064 73.716 74.888 73.8387 74.664C73.9614 74.4347 74.0227 74.1733 74.0227 73.88C74.0227 73.5867 73.9614 73.328 73.8387 73.104C73.716 72.8747 73.5454 72.6987 73.3267 72.576C73.108 72.4533 72.8654 72.392 72.5987 72.392C72.3267 72.392 72.0814 72.4533 71.8627 72.576C71.6494 72.6987 71.4787 72.8747 71.3507 73.104C71.228 73.328 71.1667 73.5867 71.1667 73.88C71.1667 74.1733 71.228 74.4347 71.3507 74.664C71.4787 74.888 71.6494 75.064 71.8627 75.192C72.0814 75.3147 72.3267 75.376 72.5987 75.376ZM45.24 84.6H42.264L41.648 86H40.824L43.36 80.4H44.152L46.696 86H45.856L45.24 84.6ZM44.96 83.96L43.752 81.216L42.544 83.96H44.96ZM51.2933 81.76V86H50.5653V85.36C50.4106 85.5787 50.2053 85.7493 49.9493 85.872C49.6986 85.9893 49.4239 86.048 49.1253 86.048C48.5599 86.048 48.1146 85.8933 47.7893 85.584C47.4639 85.2693 47.3013 84.808 47.3013 84.2V81.76H48.0693V84.112C48.0693 84.5227 48.1679 84.8347 48.3653 85.048C48.5626 85.256 48.8453 85.36 49.2133 85.36C49.6186 85.36 49.9386 85.2373 50.1733 84.992C50.4079 84.7467 50.5253 84.4 50.5253 83.952V81.76H51.2933ZM55.1393 85.752C55.0273 85.848 54.8887 85.9227 54.7233 85.976C54.558 86.024 54.3873 86.048 54.2113 86.048C53.7847 86.048 53.454 85.9333 53.2193 85.704C52.9847 85.4747 52.8673 85.1467 52.8673 84.72V82.392H52.1473V81.76H52.8673V80.832H53.6353V81.76H54.8513V82.392H53.6353V84.688C53.6353 84.9173 53.6913 85.0933 53.8033 85.216C53.9207 85.3387 54.086 85.4 54.2993 85.4C54.534 85.4 54.734 85.3333 54.8993 85.2L55.1393 85.752ZM58.3318 81.72C58.8705 81.72 59.2972 81.8773 59.6118 82.192C59.9318 82.5013 60.0918 82.9573 60.0918 83.56V86H59.3238V83.648C59.3238 83.2373 59.2252 82.928 59.0278 82.72C58.8305 82.512 58.5478 82.408 58.1798 82.408C57.7638 82.408 57.4358 82.5307 57.1958 82.776C56.9558 83.016 56.8358 83.3627 56.8358 83.816V86H56.0678V80.064H56.8358V82.36C56.9958 82.1573 57.2038 82 57.4598 81.888C57.7212 81.776 58.0118 81.72 58.3318 81.72ZM63.3526 86.048C62.9313 86.048 62.5526 85.9547 62.2166 85.768C61.8806 85.5813 61.6166 85.3253 61.4246 85C61.2379 84.6693 61.1446 84.296 61.1446 83.88C61.1446 83.464 61.2379 83.0933 61.4246 82.768C61.6166 82.4373 61.8806 82.1813 62.2166 82C62.5526 81.8133 62.9313 81.72 63.3526 81.72C63.7739 81.72 64.1499 81.8133 64.4806 82C64.8166 82.1813 65.0779 82.4373 65.2646 82.768C65.4566 83.0933 65.5526 83.464 65.5526 83.88C65.5526 84.296 65.4566 84.6693 65.2646 85C65.0779 85.3253 64.8166 85.5813 64.4806 85.768C64.1499 85.9547 63.7739 86.048 63.3526 86.048ZM63.3526 85.376C63.6246 85.376 63.8673 85.3147 64.0806 85.192C64.2993 85.064 64.4699 84.888 64.5926 84.664C64.7153 84.4347 64.7766 84.1733 64.7766 83.88C64.7766 83.5867 64.7153 83.328 64.5926 83.104C64.4699 82.8747 64.2993 82.6987 64.0806 82.576C63.8673 82.4533 63.6246 82.392 63.3526 82.392C63.0806 82.392 62.8353 82.4533 62.6166 82.576C62.4033 82.6987 62.2326 82.8747 62.1046 83.104C61.9819 83.328 61.9206 83.5867 61.9206 83.88C61.9206 84.1733 61.9819 84.4347 62.1046 84.664C62.2326 84.888 62.4033 85.064 62.6166 85.192C62.8353 85.3147 63.0806 85.376 63.3526 85.376ZM67.3507 82.472C67.4841 82.2267 67.6814 82.04 67.9427 81.912C68.2041 81.784 68.5214 81.72 68.8947 81.72V82.464C68.8521 82.4587 68.7934 82.456 68.7187 82.456C68.3027 82.456 67.9747 82.5813 67.7347 82.832C67.5001 83.0773 67.3827 83.4293 67.3827 83.888V86H66.6147V81.76H67.3507V82.472Z" fill="white"/>
</svg>
